<?xml version="1.0" encoding="UTF-8" standalone="no"?>
<!DOCTYPE svg PUBLIC "-//W3C//DTD SVG 1.1//EN" "http://www.w3.org/Graphics/SVG/1.1/DTD/svg11.dtd">
<svg width="100%" height="100%" viewBox="0 0 245 281" version="1.1" xmlns="http://www.w3.org/2000/svg" xmlns:xlink="http://www.w3.org/1999/xlink" xml:space="preserve" xmlns:serif="http://www.serif.com/" style="fill-rule:evenodd;clip-rule:evenodd;stroke-linejoin:round;stroke-miterlimit:2;">
    <g transform="matrix(1,0,0,1,-97.0617,-110.618)">
        <g>
            <g transform="matrix(1,0,0,1,-29.7922,8.52958)">
                <g transform="matrix(41.5615,0,0,41.5615,157.422,382.198)">
                    <path d="M0.566,-0.699L0.566,-0.562L0.242,-0.562L0.242,-0.411L0.55,-0.411L0.55,-0.274L0.242,-0.274L0.242,0L0.086,0L0.086,-0.699L0.566,-0.699Z" style="fill:rgb(23,36,51);fill-rule:nonzero;"/>
                </g>
                <g transform="matrix(41.5615,0,0,41.5615,191.004,382.198)">
                    <path d="M0.653,-0.467C0.653,-0.355 0.609,-0.283 0.52,-0.25L0.697,0L0.505,0L0.35,-0.223L0.242,-0.223L0.242,0L0.086,0L0.086,-0.699L0.351,-0.699C0.46,-0.699 0.537,-0.681 0.584,-0.644C0.63,-0.607 0.653,-0.548 0.653,-0.467ZM0.356,-0.358C0.409,-0.358 0.446,-0.367 0.465,-0.384C0.484,-0.401 0.494,-0.429 0.494,-0.467C0.494,-0.504 0.484,-0.53 0.464,-0.544C0.444,-0.558 0.409,-0.565 0.359,-0.565L0.242,-0.565L0.242,-0.358L0.356,-0.358Z" style="fill:rgb(23,36,51);fill-rule:nonzero;"/>
                </g>
                <g transform="matrix(41.5615,0,0,41.5615,229.365,382.198)">
                    <path d="M0.575,-0.699L0.731,-0.699L0.731,0L0.575,0L0.242,-0.438L0.242,0L0.086,0L0.086,-0.699L0.232,-0.699L0.575,-0.249L0.575,-0.699Z" style="fill:rgb(23,36,51);fill-rule:nonzero;"/>
                </g>
                <g transform="matrix(41.5615,0,0,41.5615,270.344,382.198)">
                    <path d="M0.382,-0.564L0.382,0L0.226,0L0.226,-0.564L0.028,-0.564L0.028,-0.699L0.58,-0.699L0.58,-0.564L0.382,-0.564Z" style="fill:rgb(23,36,51);fill-rule:nonzero;"/>
                </g>
                <g transform="matrix(41.5615,0,0,41.5615,304.176,382.198)">
                    <path d="M0.653,-0.467C0.653,-0.355 0.609,-0.283 0.52,-0.25L0.697,0L0.505,0L0.35,-0.223L0.242,-0.223L0.242,0L0.086,0L0.086,-0.699L0.351,-0.699C0.46,-0.699 0.537,-0.681 0.584,-0.644C0.63,-0.607 0.653,-0.548 0.653,-0.467ZM0.356,-0.358C0.409,-0.358 0.446,-0.367 0.465,-0.384C0.484,-0.401 0.494,-0.429 0.494,-0.467C0.494,-0.504 0.484,-0.53 0.464,-0.544C0.444,-0.558 0.409,-0.565 0.359,-0.565L0.242,-0.565L0.242,-0.358L0.356,-0.358Z" style="fill:rgb(23,36,51);fill-rule:nonzero;"/>
                </g>
            </g>
            <g transform="matrix(1,0,0,1,-29.7922,68.7616)">
                <path d="M160.598,225.512L219.951,225.512L219.951,214.255L160.598,214.255L160.598,225.512ZM221.852,229.314L158.697,229.314C157.648,229.314 156.796,228.464 156.796,227.414L156.796,212.354C156.796,211.304 157.648,210.454 158.697,210.454L221.852,210.454C222.902,210.454 223.753,211.304 223.753,212.354L223.753,227.414C223.753,228.464 222.902,229.314 221.852,229.314" style="fill:rgb(23,36,51);fill-rule:nonzero;"/>
            </g>
            <g transform="matrix(1,0,0,1,139.871,294.062)">
                <path d="M0,33.768L-5.992,33.768C-6.586,33.768 -7.146,33.491 -7.506,33.017C-7.865,32.544 -7.982,31.929 -7.823,31.357L0.467,1.603C0.75,0.592 1.798,0 2.809,0.282C3.821,0.564 4.412,1.612 4.13,2.624L-3.489,29.966L-1.444,29.966L6.459,1.603C6.741,0.592 7.791,0 8.801,0.282C9.813,0.564 10.404,1.612 10.122,2.624L1.832,32.378C1.602,33.2 0.854,33.768 0,33.768" style="fill:rgb(23,36,51);fill-rule:nonzero;"/>
            </g>
            <g transform="matrix(1,0,0,1,182.539,298.076)">
                <path d="M0,25.952L2.044,25.952L-5.191,0L-7.231,0L0,25.952ZM4.547,29.754L-1.444,29.754C-2.297,29.754 -3.046,29.185 -3.275,28.364L-11.566,-1.39C-11.725,-1.963 -11.607,-2.577 -11.249,-3.051C-10.889,-3.525 -10.329,-3.802 -9.734,-3.802L-3.747,-3.802C-2.894,-3.802 -2.145,-3.233 -1.916,-2.411L6.379,27.343C6.538,27.915 6.421,28.53 6.062,29.003C5.702,29.476 5.142,29.754 4.547,29.754" style="fill:rgb(23,36,51);fill-rule:nonzero;"/>
            </g>
            <g transform="matrix(1,0,0,1,163.478,294.274)">
                <path d="M0,3.802L-5.991,3.802C-7.041,3.802 -7.892,2.951 -7.892,1.902C-7.892,0.852 -7.041,0 -5.991,0L0,0C1.05,0 1.901,0.852 1.901,1.902C1.901,2.951 1.05,3.802 0,3.802" style="fill:rgb(23,36,51);fill-rule:nonzero;"/>
            </g>
            <g transform="matrix(1,0,0,1,182.101,286.5)">
                <path d="M0,3.803L-43.237,3.803C-44.287,3.803 -45.138,2.951 -45.138,1.902C-45.138,0.852 -44.287,0 -43.237,0L0,0C1.05,0 1.901,0.852 1.901,1.902C1.901,2.951 1.05,3.803 0,3.803" style="fill:rgb(23,36,51);fill-rule:nonzero;"/>
            </g>
            <g transform="matrix(1,0,0,1,152.132,256.691)">
                <path d="M0,22.524L15.819,22.524L19.631,0.001L-3.812,0.001L0,22.524ZM17.425,26.326L-1.606,26.326C-2.534,26.326 -3.326,25.657 -3.481,24.742L-7.936,-1.584C-8.029,-2.135 -7.875,-2.701 -7.514,-3.128C-7.152,-3.556 -6.621,-3.802 -6.062,-3.802L21.88,-3.802C22.44,-3.802 22.971,-3.556 23.333,-3.128C23.694,-2.701 23.848,-2.135 23.755,-1.584L19.3,24.742C19.145,25.657 18.353,26.326 17.425,26.326" style="fill:rgb(23,36,51);fill-rule:nonzero;"/>
            </g>
            <g transform="matrix(1,0,0,1,160.041,251.761)">
                <path d="M0,-35.709C-2.573,-32.857 -8.087,-25.808 -8.087,-17.77C-8.087,-6.704 -3.825,1.008 0,1.008C3.825,1.008 8.086,-6.704 8.086,-17.77C8.086,-25.807 2.573,-32.856 0,-35.709M0,4.81C-6.667,4.81 -11.889,-5.108 -11.889,-17.77C-11.889,-29.881 -1.726,-39.442 -1.293,-39.843C-0.563,-40.519 0.563,-40.519 1.292,-39.843C1.725,-39.442 11.889,-29.881 11.889,-17.77C11.889,-5.108 6.667,4.81 0,4.81" style="fill:rgb(23,36,51);fill-rule:nonzero;"/>
            </g>
            <g transform="matrix(1,0,0,1,160.041,222.946)">
                <path d="M0,32.781C-1.05,32.781 -1.901,31.93 -1.901,30.88L-1.901,1.901C-1.901,0.851 -1.05,0 0,0C1.05,0 1.901,0.851 1.901,1.901L1.901,30.88C1.901,31.93 1.05,32.781 0,32.781" style="fill:rgb(23,36,51);fill-rule:nonzero;"/>
            </g>
            <g transform="matrix(1,0,0,1,113.72,110.887)">
                <path d="M0,181.703C-0.672,181.703 -1.323,181.347 -1.669,180.716C-11.474,162.829 -16.658,142.532 -16.658,122.017C-16.658,54.588 38.2,-0.269 105.629,-0.269C173.058,-0.269 227.916,54.588 227.916,122.017C227.916,142.532 222.732,162.83 212.926,180.716C212.421,181.636 211.266,181.972 210.345,181.469C209.425,180.964 209.087,179.808 209.592,178.888C219.091,161.56 224.114,141.895 224.114,122.017C224.114,56.685 170.961,3.533 105.629,3.533C40.296,3.533 -12.855,56.685 -12.855,122.017C-12.855,141.894 -7.834,161.56 1.666,178.888C2.17,179.808 1.833,180.964 0.912,181.469C0.622,181.628 0.309,181.703 0,181.703" style="fill:rgb(23,36,51);fill-rule:nonzero;"/>
            </g>
            <g transform="matrix(1,0,0,1,219.349,110.937)">
                <path d="M0,50.627C-1.05,50.627 -1.901,49.775 -1.901,48.726L-1.901,1.9C-1.901,0.851 -1.05,0 0,0C1.05,0 1.901,0.851 1.901,1.9L1.901,48.726C1.901,49.775 1.05,50.627 0,50.627" style="fill:rgb(23,36,51);fill-rule:nonzero;"/>
            </g>
            <g transform="matrix(1,0,0,1,216.714,161.563)">
                <path d="M0,7.898L4.996,7.898L4.996,2.498C4.996,1.12 3.876,0 2.499,0C1.121,0 0,1.12 0,2.498L0,7.898ZM6.897,11.7L-1.901,11.7C-2.951,11.7 -3.802,10.849 -3.802,9.799L-3.802,2.498C-3.802,-0.976 -0.976,-3.802 2.499,-3.802C5.972,-3.802 8.798,-0.976 8.798,2.498L8.798,9.799C8.798,10.849 7.947,11.7 6.897,11.7" style="fill:rgb(23,36,51);fill-rule:nonzero;"/>
            </g>
            <g transform="matrix(1,0,0,1,189.543,172.857)">
                <path d="M0,18.927L59.609,18.927L59.609,15.771C59.609,15.741 59.609,15.712 59.61,15.681C59.847,10.703 53.13,6.849 47.452,4.493C41.422,1.99 35.23,0.636 34.139,0.407C34.115,0.408 34.091,0.409 34.068,0.409L25.461,0.409C24.352,0.641 18.174,1.994 12.156,4.493C6.48,6.849 -0.236,10.703 -0.001,15.681L0,18.927ZM61.51,22.729L-1.9,22.729C-2.95,22.729 -3.801,21.878 -3.801,20.828L-3.801,15.771C-4.072,10.085 0.822,5.072 10.747,0.961C17.703,-1.92 24.609,-3.3 24.899,-3.357C25.021,-3.381 25.144,-3.393 25.268,-3.393L33.068,-3.393C33.161,-3.45 33.26,-3.5 33.362,-3.542C34.018,-3.802 34.753,-3.68 35.285,-3.236C37.122,-2.84 42.974,-1.477 48.86,0.961C58.761,5.06 63.656,10.057 63.411,15.814L63.411,20.828C63.411,21.878 62.56,22.729 61.51,22.729" style="fill:rgb(23,36,51);fill-rule:nonzero;"/>
            </g>
            <g transform="matrix(1,0,0,1,306.067,262.813)">
                <path d="M0,62.801L-8.899,9.475C-10.029,2.702 -15.832,-2.214 -22.699,-2.214L-52.232,-2.214C-53.282,-2.214 -54.134,-1.362 -54.134,-0.312C-54.134,0.738 -53.282,1.588 -52.232,1.588L-31.128,1.588L-41.357,62.801C-41.53,63.836 -40.831,64.817 -39.796,64.989C-39.689,65.007 -39.584,65.015 -39.48,65.015C-38.568,65.015 -37.762,64.358 -37.607,63.428L-27.272,1.588L-22.699,1.588C-17.698,1.588 -13.472,5.168 -12.649,10.101L-3.75,63.426C-3.596,64.357 -2.79,65.015 -1.877,65.015C-1.774,65.015 -1.668,65.006 -1.562,64.989C-0.526,64.816 0.173,63.836 0,62.801" style="fill:rgb(23,36,51);fill-rule:nonzero;"/>
            </g>
            <g transform="matrix(1,0,0,1,205.685,300.309)">
                <path d="M0,27.521C-0.104,27.521 -0.209,27.513 -0.315,27.496C-1.351,27.323 -2.05,26.343 -1.877,25.307L2.056,1.734C2.229,0.698 3.209,0 4.244,0.171C5.279,0.344 5.979,1.324 5.806,2.36L1.873,25.933C1.717,26.863 0.912,27.521 0,27.521" style="fill:rgb(23,36,51);fill-rule:nonzero;"/>
            </g>
            <g transform="matrix(1,0,0,1,213.869,260.449)">
                <path d="M0,18.355C-0.104,18.355 -0.209,18.346 -0.315,18.329C-1.351,18.155 -2.05,17.175 -1.877,16.14L0.528,1.736C0.701,0.7 1.679,0 2.717,0.173C3.752,0.346 4.452,1.326 4.278,2.362L1.873,16.766C1.718,17.696 0.912,18.355 0,18.355" style="fill:rgb(23,36,51);fill-rule:nonzero;"/>
            </g>
            <g transform="matrix(1,0,0,1,243.291,301.412)">
                <path d="M0,26.413C-0.913,26.413 -1.719,25.755 -1.873,24.824L-5.621,2.36C-5.793,1.324 -5.095,0.345 -4.059,0.172C-3.015,0 -2.042,0.699 -1.87,1.734L1.877,24.199C2.05,25.235 1.351,26.214 0.314,26.387C0.209,26.404 0.103,26.413 0,26.413" style="fill:rgb(23,36,51);fill-rule:nonzero;"/>
            </g>
            <g transform="matrix(1,0,0,1,235.101,260.597)">
                <path d="M0,18.162C-0.912,18.162 -1.718,17.503 -1.873,16.573L-2.583,12.315C-3.405,7.382 -7.632,3.802 -12.633,3.802L-42.165,3.802C-43.214,3.802 -44.066,2.95 -44.066,1.9C-44.066,0.85 -43.214,0 -42.165,0L-12.633,0C-5.766,0 0.038,4.916 1.167,11.689L1.877,15.947C2.05,16.983 1.351,17.963 0.315,18.135C0.209,18.152 0.104,18.162 0,18.162" style="fill:rgb(23,36,51);fill-rule:nonzero;"/>
            </g>
            <g transform="matrix(1,0,0,1,203.579,233.907)">
                <path d="M0,57.35C-0.638,50.572 4.699,44.851 11.349,44.851L34.897,44.851C35.05,44.89 35.206,44.917 35.37,44.917C35.534,44.917 35.691,44.89 35.843,44.851L61.562,44.851C62.612,44.851 63.463,43.999 63.463,42.95C63.463,41.9 62.612,41.048 61.562,41.048L37.271,41.048L37.271,8.703C37.271,-1.776 45.797,-10.302 56.277,-10.302L81.357,-10.302C91.837,-10.302 100.362,-1.776 100.362,8.703L100.362,46.109C100.362,53.905 96.2,60.746 89.981,64.529C86.724,66.509 82.902,67.652 78.819,67.652L11.683,67.652C5.75,67.652 0.556,63.257 0,57.35M99.428,60.833C99.463,60.786 99.497,60.737 99.532,60.688C102.445,56.561 104.164,51.534 104.164,46.109L104.164,8.703C104.164,-3.873 93.934,-14.104 81.357,-14.104L56.277,-14.104C43.701,-14.104 33.47,-3.873 33.47,8.703L33.47,41.048L11.789,41.048C3.613,41.048 -3.433,47.319 -3.835,55.486C-4.265,64.214 2.712,71.454 11.349,71.454L78.819,71.454C79.333,71.454 79.844,71.433 80.351,71.403C80.504,71.394 80.655,71.38 80.808,71.369C81.173,71.339 81.537,71.304 81.898,71.26C82.055,71.241 82.211,71.222 82.367,71.2C82.781,71.142 83.192,71.074 83.6,70.996C83.681,70.98 83.764,70.968 83.844,70.952C84.334,70.853 84.818,70.738 85.298,70.611C85.409,70.581 85.519,70.547 85.63,70.516C86.003,70.413 86.372,70.3 86.737,70.18C86.871,70.136 87.005,70.091 87.138,70.044C87.513,69.913 87.884,69.774 88.252,69.625C88.34,69.59 88.43,69.557 88.518,69.521C88.982,69.328 89.44,69.122 89.891,68.903C89.923,68.887 89.953,68.87 89.985,68.854C90.395,68.652 90.799,68.437 91.196,68.213C91.291,68.161 91.386,68.105 91.479,68.05C91.836,67.844 92.187,67.629 92.531,67.407C92.604,67.36 92.677,67.315 92.748,67.268C93.589,66.712 94.394,66.109 95.16,65.46C95.209,65.419 95.257,65.376 95.305,65.335C95.644,65.044 95.975,64.745 96.297,64.437C96.347,64.389 96.396,64.342 96.446,64.294C97.182,63.581 97.875,62.827 98.52,62.03C98.525,62.023 98.53,62.016 98.536,62.009C98.845,61.626 99.142,61.234 99.428,60.833" style="fill:rgb(23,36,51);fill-rule:nonzero;"/>
            </g>
        </g>
    </g>
</svg>
