<?xml version="1.0" encoding="UTF-8" standalone="no"?>
<!DOCTYPE svg PUBLIC "-//W3C//DTD SVG 1.1//EN" "http://www.w3.org/Graphics/SVG/1.1/DTD/svg11.dtd">
<svg width="100%" height="100%" viewBox="0 0 1020 1168" version="1.1" xmlns="http://www.w3.org/2000/svg" xmlns:xlink="http://www.w3.org/1999/xlink" xml:space="preserve" xmlns:serif="http://www.serif.com/" style="fill-rule:evenodd;clip-rule:evenodd;stroke-linejoin:round;stroke-miterlimit:2;">
    <g transform="matrix(1,0,0,1,-528.558,-425.371)">
        <g transform="matrix(4.16667,0,0,4.16667,0,0)">
            <path d="M160.248,353.065L160.248,382.199L167.853,382.199L167.853,371.684L180.904,371.684L180.904,365.616L167.853,365.616L167.853,359.133L181.984,359.133L182.026,353.065L160.248,353.065Z" style="fill:rgb(22,35,51);fill-rule:nonzero;"/>
        </g>
        <g transform="matrix(4.16667,0,0,4.16667,0,0)">
            <path d="M219.888,382.2L213.82,372.682C217.187,370.936 219.016,367.695 219.016,363.289C219.016,356.805 214.61,353.065 206.88,353.065L193.788,353.065L193.788,382.2L201.393,382.2L201.393,374.137L207.046,374.137L211.285,382.2L219.888,382.2ZM201.393,359.133L206.921,359.133C209.997,359.133 211.784,360.671 211.784,363.538C211.784,366.489 209.997,368.069 206.921,368.069L201.393,368.069L201.393,359.133Z" style="fill:rgb(22,35,51);fill-rule:nonzero;"/>
        </g>
        <g transform="matrix(4.16667,0,0,4.16667,0,0)">
            <path d="M232.191,353.065L232.191,382.2L239.298,382.2L239.298,364.744L252.514,382.2L259.164,382.2L259.164,353.065L252.098,353.065L252.098,370.604L238.882,353.065L232.191,353.065Z" style="fill:rgb(22,35,51);fill-rule:nonzero;"/>
        </g>
        <g transform="matrix(4.16667,0,0,4.16667,0,0)">
            <path d="M270.634,353.065L270.634,359.341L279.279,359.341L279.279,382.2L286.885,382.2L286.885,359.341L295.613,359.341L295.613,353.065L270.634,353.065Z" style="fill:rgb(22,35,51);fill-rule:nonzero;"/>
        </g>
        <g transform="matrix(4.16667,0,0,4.16667,0,0)">
            <path d="M333.101,382.2L327.033,372.682C330.4,370.936 332.228,367.695 332.228,363.289C332.228,356.806 327.823,353.065 320.093,353.065L307.001,353.065L307.001,382.2L314.606,382.2L314.606,374.137L320.259,374.137L324.498,382.2L333.101,382.2ZM314.606,359.133L320.134,359.133C323.21,359.133 324.997,360.671 324.997,363.539C324.997,366.489 323.21,368.069 320.134,368.069L314.606,368.069L314.606,359.133Z" style="fill:rgb(22,35,51);fill-rule:nonzero;"/>
        </g>
        <g transform="matrix(4.16667,0,0,4.16667,0,0)">
            <path d="M160.598,285.744L219.951,285.744L219.951,274.488L160.598,274.488L160.598,285.744ZM221.852,289.546L158.697,289.546C157.648,289.546 156.796,288.696 156.796,287.646L156.796,272.586C156.796,271.536 157.648,270.686 158.697,270.686L221.852,270.686C222.902,270.686 223.753,271.536 223.753,272.586L223.753,287.646C223.753,288.696 222.902,289.546 221.852,289.546Z" style="fill:rgb(22,35,51);fill-rule:nonzero;"/>
        </g>
        <g transform="matrix(4.16667,0,0,4.16667,0,0)">
            <path d="M169.663,319.3L163.671,319.3C163.076,319.3 162.517,319.023 162.157,318.549C161.798,318.076 161.68,317.461 161.839,316.889L170.13,287.135C170.412,286.124 171.461,285.533 172.471,285.814C173.484,286.096 174.074,287.144 173.793,288.156L166.174,315.498L168.219,315.498L176.122,287.135C176.403,286.124 177.454,285.533 178.464,285.814C179.475,286.096 180.067,287.144 179.785,288.156L171.494,317.91C171.265,318.732 170.516,319.3 169.663,319.3Z" style="fill:rgb(22,35,51);fill-rule:nonzero;"/>
        </g>
        <g transform="matrix(4.16667,0,0,4.16667,0,0)">
            <path d="M212.331,315.498L214.375,315.498L207.14,289.546L205.099,289.546L212.331,315.498ZM216.878,319.3L210.887,319.3C210.033,319.3 209.285,318.732 209.055,317.91L200.765,288.156C200.606,287.583 200.723,286.969 201.082,286.495C201.442,286.022 202.002,285.744 202.596,285.744L208.584,285.744C209.437,285.744 210.186,286.314 210.415,287.135L218.71,316.889C218.869,317.461 218.752,318.076 218.392,318.549C218.033,319.023 217.473,319.3 216.878,319.3Z" style="fill:rgb(22,35,51);fill-rule:nonzero;"/>
        </g>
        <g transform="matrix(4.16667,0,0,4.16667,0,0)">
            <path d="M193.27,289.546L187.279,289.546C186.229,289.546 185.378,288.696 185.378,287.646C185.378,286.596 186.229,285.744 187.279,285.744L193.27,285.744C194.32,285.744 195.172,286.596 195.172,287.646C195.172,288.696 194.32,289.546 193.27,289.546Z" style="fill:rgb(22,35,51);fill-rule:nonzero;"/>
        </g>
        <g transform="matrix(4.16667,0,0,4.16667,0,0)">
            <path d="M211.893,281.774L168.656,281.774C167.607,281.774 166.756,280.922 166.756,279.872C166.756,278.823 167.607,277.971 168.656,277.971L211.893,277.971C212.943,277.971 213.794,278.823 213.794,279.872C213.794,280.922 212.943,281.774 211.893,281.774Z" style="fill:rgb(22,35,51);fill-rule:nonzero;"/>
        </g>
        <g transform="matrix(4.16667,0,0,4.16667,0,0)">
            <path d="M181.924,270.686L197.743,270.686L201.555,248.162L178.112,248.162L181.924,270.686ZM199.349,274.488L180.318,274.488C179.39,274.488 178.598,273.819 178.443,272.904L173.988,246.578C173.895,246.027 174.049,245.461 174.41,245.034C174.772,244.607 175.303,244.36 175.862,244.36L203.804,244.36C204.364,244.36 204.895,244.607 205.256,245.034C205.618,245.461 205.772,246.027 205.679,246.578L201.224,272.904C201.069,273.819 200.277,274.488 199.349,274.488Z" style="fill:rgb(22,35,51);fill-rule:nonzero;"/>
        </g>
        <g transform="matrix(4.16667,0,0,4.16667,0,0)">
            <path d="M189.834,207.522C187.261,210.374 181.747,217.424 181.747,225.461C181.747,236.528 186.008,244.24 189.834,244.24C193.658,244.24 197.921,236.528 197.921,225.461C197.921,217.424 192.407,210.375 189.834,207.522ZM189.834,248.041C183.167,248.041 177.944,238.123 177.944,225.461C177.944,213.35 188.108,203.789 188.541,203.388C189.271,202.713 190.397,202.713 191.126,203.388C191.559,203.789 201.722,213.35 201.722,225.461C201.722,238.123 196.5,248.041 189.834,248.041Z" style="fill:rgb(22,35,51);fill-rule:nonzero;"/>
        </g>
        <g transform="matrix(4.16667,0,0,4.16667,0,0)">
            <path d="M189.834,247.198C188.783,247.198 187.932,246.346 187.932,245.297L187.932,216.318C187.932,215.268 188.783,214.417 189.834,214.417C190.883,214.417 191.735,215.268 191.735,216.318L191.735,245.297C191.735,246.346 190.883,247.198 189.834,247.198Z" style="fill:rgb(22,35,51);fill-rule:nonzero;"/>
        </g>
        <g transform="matrix(4.16667,0,0,4.16667,0,0)">
            <path d="M143.512,284.061C142.84,284.061 142.189,283.704 141.843,283.074C132.038,265.187 126.854,244.889 126.854,224.375C126.854,156.946 181.712,102.089 249.141,102.089C316.57,102.089 371.427,156.946 371.427,224.375C371.427,244.889 366.244,265.188 356.438,283.074C355.933,283.993 354.778,284.329 353.856,283.826C352.937,283.322 352.599,282.166 353.104,281.245C362.603,263.918 367.626,244.253 367.626,224.375C367.626,159.043 314.473,105.891 249.141,105.891C183.808,105.891 130.656,159.043 130.656,224.375C130.656,244.252 135.678,263.918 145.177,281.245C145.682,282.166 145.345,283.322 144.424,283.826C144.134,283.986 143.821,284.061 143.512,284.061Z" style="fill:rgb(22,35,51);fill-rule:nonzero;"/>
        </g>
        <g transform="matrix(4.16667,0,0,4.16667,0,0)">
            <path d="M249.141,153.034C248.091,153.034 247.24,152.182 247.24,151.133L247.24,104.307C247.24,103.258 248.091,102.407 249.141,102.407C250.191,102.407 251.042,103.258 251.042,104.307L251.042,151.133C251.042,152.182 250.191,153.034 249.141,153.034Z" style="fill:rgb(22,35,51);fill-rule:nonzero;"/>
        </g>
        <g transform="matrix(4.16667,0,0,4.16667,0,0)">
            <path d="M246.506,160.932L251.503,160.932L251.503,155.532C251.503,154.154 250.382,153.034 249.005,153.034C247.627,153.034 246.506,154.154 246.506,155.532L246.506,160.932ZM253.404,164.734L244.606,164.734C243.556,164.734 242.704,163.883 242.704,162.833L242.704,155.532C242.704,152.058 245.531,149.232 249.005,149.232C252.478,149.232 255.304,152.058 255.304,155.532L255.304,162.833C255.304,163.883 254.454,164.734 253.404,164.734Z" style="fill:rgb(22,35,51);fill-rule:nonzero;"/>
        </g>
        <g transform="matrix(4.16667,0,0,4.16667,0,0)">
            <path d="M219.336,183.254L278.944,183.254L278.944,180.098C278.944,180.068 278.945,180.039 278.946,180.009C279.182,175.031 272.465,171.177 266.788,168.821C260.756,166.317 254.566,164.964 253.474,164.735C253.451,164.736 253.427,164.736 253.404,164.736L244.797,164.736C243.688,164.968 237.509,166.321 231.491,168.82C225.816,171.177 219.099,175.031 219.334,180.009L219.336,183.254ZM280.845,187.056L217.436,187.056C216.386,187.056 215.535,186.205 215.535,185.155L215.535,180.098C215.263,174.412 220.157,169.399 230.083,165.288C237.038,162.407 243.944,161.027 244.235,160.97C244.356,160.946 244.48,160.934 244.603,160.934L252.404,160.934C252.497,160.877 252.595,160.827 252.698,160.785C253.353,160.525 254.089,160.647 254.621,161.091C256.458,161.487 262.309,162.85 268.196,165.288C278.096,169.388 282.992,174.385 282.747,180.141L282.747,185.155C282.747,186.205 281.895,187.056 280.845,187.056Z" style="fill:rgb(22,35,51);fill-rule:nonzero;"/>
        </g>
        <g transform="matrix(4.16667,0,0,4.16667,0,0)">
            <path d="M335.859,317.084L326.96,263.758C325.83,256.986 320.027,252.07 313.16,252.07L283.627,252.07C282.577,252.07 281.725,252.921 281.725,253.971C281.725,255.021 282.577,255.871 283.627,255.871L304.731,255.871L294.502,317.084C294.329,318.119 295.028,319.1 296.063,319.273C296.17,319.29 296.275,319.298 296.379,319.298C297.291,319.298 298.097,318.641 298.252,317.711L308.587,255.871L313.16,255.871C318.161,255.871 322.387,259.451 323.21,264.384L332.109,317.709C332.263,318.64 333.069,319.298 333.982,319.298C334.085,319.298 334.191,319.289 334.297,319.272C335.333,319.099 336.032,318.119 335.859,317.084Z" style="fill:rgb(22,35,51);fill-rule:nonzero;"/>
        </g>
        <g transform="matrix(4.16667,0,0,4.16667,0,0)">
            <path d="M235.477,319.3C235.373,319.3 235.268,319.292 235.162,319.275C234.127,319.102 233.427,318.122 233.6,317.086L237.533,293.513C237.706,292.477 238.687,291.78 239.721,291.951C240.756,292.123 241.456,293.103 241.283,294.139L237.35,317.712C237.195,318.643 236.389,319.3 235.477,319.3Z" style="fill:rgb(22,35,51);fill-rule:nonzero;"/>
        </g>
        <g transform="matrix(4.16667,0,0,4.16667,0,0)">
            <path d="M243.661,270.275C243.557,270.275 243.452,270.266 243.346,270.248C242.31,270.075 241.611,269.095 241.784,268.06L244.19,253.656C244.362,252.619 245.34,251.919 246.378,252.093C247.413,252.266 248.113,253.245 247.94,254.282L245.534,268.686C245.379,269.616 244.573,270.275 243.661,270.275Z" style="fill:rgb(22,35,51);fill-rule:nonzero;"/>
        </g>
        <g transform="matrix(4.16667,0,0,4.16667,0,0)">
            <path d="M273.084,319.295C272.171,319.295 271.365,318.637 271.211,317.706L267.463,295.242C267.291,294.206 267.989,293.227 269.025,293.054C270.069,292.882 271.042,293.581 271.214,294.617L274.961,317.081C275.133,318.117 274.434,319.096 273.398,319.269C273.293,319.286 273.186,319.295 273.084,319.295Z" style="fill:rgb(22,35,51);fill-rule:nonzero;"/>
        </g>
        <g transform="matrix(4.16667,0,0,4.16667,0,0)">
            <path d="M264.893,270.23C263.981,270.23 263.175,269.571 263.02,268.641L262.31,264.383C261.488,259.451 257.26,255.869 252.26,255.869L222.729,255.869C221.679,255.869 220.827,255.018 220.827,253.968C220.827,252.918 221.679,252.068 222.729,252.068L252.26,252.068C259.127,252.068 264.931,256.985 266.06,263.757L266.77,268.015C266.943,269.051 266.244,270.031 265.209,270.202C265.102,270.22 264.997,270.23 264.893,270.23Z" style="fill:rgb(22,35,51);fill-rule:nonzero;"/>
        </g>
        <g transform="matrix(4.16667,0,0,4.16667,0,0)">
            <path d="M233.371,282.728C232.733,275.95 238.07,270.229 244.72,270.229L268.268,270.229C268.421,270.268 268.577,270.295 268.741,270.295C268.905,270.295 269.062,270.268 269.214,270.229L294.932,270.229C295.983,270.229 296.834,269.377 296.834,268.327C296.834,267.278 295.983,266.426 294.932,266.426L270.642,266.426L270.642,234.081C270.642,223.601 279.169,215.076 289.648,215.076L314.728,215.076C325.208,215.076 333.733,223.601 333.733,234.081L333.733,271.487C333.733,279.283 329.571,286.123 323.352,289.907C320.094,291.887 316.273,293.03 312.189,293.03L245.053,293.03C239.121,293.03 233.927,288.635 233.371,282.728ZM332.798,286.211C332.834,286.163 332.868,286.115 332.903,286.066C335.816,281.939 337.535,276.911 337.535,271.487L337.535,234.081C337.535,221.505 327.304,211.274 314.728,211.274L289.648,211.274C277.072,211.274 266.84,221.505 266.84,234.081L266.84,266.426L245.16,266.426C236.984,266.426 229.938,272.697 229.536,280.864C229.105,289.592 236.083,296.831 244.72,296.831L312.189,296.831C312.704,296.831 313.214,296.811 313.721,296.781C313.875,296.772 314.026,296.758 314.178,296.746C314.544,296.717 314.908,296.682 315.269,296.638C315.425,296.618 315.582,296.6 315.738,296.577C316.152,296.52 316.563,296.451 316.97,296.373C317.051,296.358 317.134,296.346 317.214,296.329C317.705,296.23 318.189,296.116 318.669,295.989C318.78,295.959 318.889,295.925 319.001,295.894C319.374,295.79 319.743,295.678 320.108,295.558C320.242,295.514 320.376,295.468 320.508,295.422C320.883,295.291 321.255,295.152 321.623,295.004C321.711,294.968 321.8,294.935 321.889,294.899C322.353,294.705 322.811,294.5 323.261,294.281C323.294,294.265 323.324,294.247 323.356,294.232C323.766,294.03 324.17,293.815 324.567,293.591C324.662,293.538 324.756,293.483 324.85,293.428C325.207,293.222 325.557,293.007 325.902,292.784C325.974,292.738 326.047,292.693 326.119,292.646C326.96,292.09 327.764,291.487 328.531,290.838C328.58,290.797 328.628,290.754 328.675,290.713C329.014,290.422 329.345,290.122 329.668,289.815C329.717,289.767 329.767,289.72 329.817,289.672C330.552,288.959 331.246,288.204 331.89,287.408C331.896,287.401 331.901,287.394 331.907,287.387C332.215,287.004 332.512,286.612 332.798,286.211Z" style="fill:rgb(22,35,51);fill-rule:nonzero;"/>
        </g>
    </g>
</svg>
