<svg xmlns="http://www.w3.org/2000/svg" viewBox="0 0 260.37 86.83"><defs><style>.cls-1{fill:#717070;}.cls-2{fill:#a5d9dc;}.cls-3{fill:#d2eced;}.cls-4{fill:#bbe2e5;}.cls-5{fill:#8ecfd3;}</style></defs><title>Logo_regular</title><g id="Layer_2" data-name="Layer 2"><g id="Layer_1-2" data-name="Layer 1"><path class="cls-1" d="M85.54,58a6.46,6.46,0,0,0,3.26-.85,7.11,7.11,0,0,0,2.43-2.26l2.41,1.8a10.17,10.17,0,0,1-3.48,3,9.71,9.71,0,0,1-4.62,1.11,9.59,9.59,0,0,1-3.91-.8,10.15,10.15,0,0,1-5.34-5.39,10.27,10.27,0,0,1,0-7.9,10.15,10.15,0,0,1,5.34-5.39,9.61,9.61,0,0,1,3.91-.8,9.71,9.71,0,0,1,4.62,1.11,10.19,10.19,0,0,1,3.48,3l-2.41,1.8a7.11,7.11,0,0,0-2.43-2.26,6.47,6.47,0,0,0-3.26-.85,6.37,6.37,0,0,0-2.7.58,7.08,7.08,0,0,0-2.2,1.58,7.61,7.61,0,0,0-1.5,2.33,7.63,7.63,0,0,0,0,5.71,7.6,7.6,0,0,0,1.5,2.33,7.07,7.07,0,0,0,2.2,1.58A6.36,6.36,0,0,0,85.54,58Z"/><path class="cls-1" d="M112,49.66a7.18,7.18,0,0,1-1.15,2.25A7,7,0,0,1,109,53.6a.35.35,0,0,1-.14.08.35.35,0,0,0-.14.08l3.58,7h-3.13L106,54.68c-.22,0-.44.07-.67.08s-.46,0-.72,0H101v6H98V40.43h6.6A8.32,8.32,0,0,1,109,41.63a6.92,6.92,0,0,1,3,4l.06.25a2,2,0,0,0,.08.25v.14a1.07,1.07,0,0,1,.07.3c0,.11,0,.22,0,.33v0a2.14,2.14,0,0,1,0,.33V48a2.13,2.13,0,0,1,0,.33v.05c0,.11,0,.22,0,.32a1.43,1.43,0,0,1-.07.32v.11A2.49,2.49,0,0,0,112,49.66Zm-7,2.52a3.64,3.64,0,0,0,1.68-.39,4.33,4.33,0,0,0,1.32-1,5.18,5.18,0,0,0,.89-1.46,4.52,4.52,0,0,0,0-3.41,5,5,0,0,0-.89-1.46,4.44,4.44,0,0,0-1.32-1A3.63,3.63,0,0,0,105,43h-4v9.15Z"/><path class="cls-1" d="M132.2,40.43v0l-6.29,13.7v6.68h-3V54.16l-6.29-13.7h0l0,0h3.3l4.49,10.87,4.49-10.87Z"/><path class="cls-1" d="M147.72,50.66a2.41,2.41,0,0,1,.36.32l.3.35a6.52,6.52,0,0,1,1,1.76,5.65,5.65,0,0,1,.36,2,2.17,2.17,0,0,1,0,.39,5.35,5.35,0,0,1-.94,2.8,5.7,5.7,0,0,1-2,1.84,5.49,5.49,0,0,1-2.72.68h-1.83a5.49,5.49,0,0,1-2.72-.68,5.7,5.7,0,0,1-2-1.84,7.06,7.06,0,0,1-.44-.78l2.58-2a2.86,2.86,0,0,0,.35,1,3.25,3.25,0,0,0,.65.8,2.91,2.91,0,0,0,1.94.73h1.11a2.87,2.87,0,0,0,2-.73,3,3,0,0,0,1-1.82,1.7,1.7,0,0,1,0-.22,1.86,1.86,0,0,0,0-.22,2.91,2.91,0,0,0-.22-1.14,3,3,0,0,0-.61-.93,3.11,3.11,0,0,0-.91-.65,2.9,2.9,0,0,0-1.11-.28h-1.69a5.35,5.35,0,0,1-1.93-.4,5.74,5.74,0,0,1-1.62-1,2.83,2.83,0,0,1-.67-.67,6.5,6.5,0,0,1-1-1.76,5.65,5.65,0,0,1-.36-2v-.39a5.78,5.78,0,0,1,1-2.8,5.69,5.69,0,0,1,2-1.84,5.49,5.49,0,0,1,2.72-.68h1.8a5.57,5.57,0,0,1,2.73.68,5.67,5.67,0,0,1,2,1.84l.18.31.18.3-2.52,2a3.08,3.08,0,0,0-1.05-1.66,2.83,2.83,0,0,0-1.86-.67h-1.11a3,3,0,0,0-1.07.19,2.85,2.85,0,0,0-.9.54,3.16,3.16,0,0,0-.65.82,3,3,0,0,0-.35,1,.91.91,0,0,0,0,.22v.22a2.88,2.88,0,0,0,.22,1.14,3,3,0,0,0,.61.93,3.12,3.12,0,0,0,.92.65,2.9,2.9,0,0,0,1.11.28h1.69a5.37,5.37,0,0,1,1.93.4A5.8,5.8,0,0,1,147.72,50.66Z"/><path class="cls-1" d="M154.13,40.46h13v2.86h-5V60.75h-2.94V43.32h-5Z"/><path class="cls-1" d="M171.48,60.75l8.29-20.32,8.29,20.32h-3l-.61-1.61h-9.29l-.64,1.61Zm4.66-4.21h7.26l-3.63-9.32Z"/><path class="cls-1" d="M195.41,57.9h8.29v2.91H192.44V40.46h3Z"/><path class="cls-1" d="M211,57.9h8.29v2.91H208.08V40.46h3Z"/><path class="cls-1" d="M223.71,40.46h3V60.78h-3Z"/><path class="cls-1" d="M244,40.49,235.75,57.9H244v2.94H231.06v0l8.18-17.47h-7.07V40.46H244l0,0Z"/><path class="cls-1" d="M251.33,57.82h9v2.91h-12V40.49h11.78v2.86h-8.84v6.88h8V53h-8Z"/><polygon class="cls-2" points="46.45 38.05 33.85 86.83 17.58 76.45 30.18 0 48.57 29.87 46.45 38.05"/><polygon class="cls-3" points="11.59 39.52 7.25 69.85 4.81 68.3 0 33.02 11.59 39.52"/><polygon class="cls-4" points="25.36 19.35 16.11 75.51 8.74 70.81 17.78 7.69 25.36 19.35"/><polygon class="cls-5" points="58.52 35.85 48.09 76.04 41.18 81.76 35.68 86.21 47.45 40.64 58.52 35.85"/></g></g></svg>