<?xml version="1.0" standalone="no"?>
<!DOCTYPE svg PUBLIC "-//W3C//DTD SVG 20010904//EN"
 "http://www.w3.org/TR/2001/REC-SVG-20010904/DTD/svg10.dtd">
<svg version="1.0" xmlns="http://www.w3.org/2000/svg"
 width="150.000000pt" height="150.000000pt" viewBox="0 0 150.000000 150.000000"
 preserveAspectRatio="xMidYMid meet">
<metadata>
Created by potrace 1.11, written by Peter Selinger 2001-2013
</metadata>
<g transform="translate(0.000000,150.000000) scale(0.100000,-0.100000)"
fill="#000000" stroke="none">
<path d="M615 1486 c-315 -84 -523 -349 -514 -655 3 -119 58 -301 90 -301 7 0
8 7 3 18 -4 9 -21 55 -37 102 -27 74 -31 99 -31 195 -1 122 19 199 77 309 38
71 153 189 227 233 71 42 180 80 253 88 51 6 57 5 58 -12 5 -93 0 -216 -10
-226 -6 -6 -11 -21 -11 -33 0 -17 -9 -24 -43 -34 -60 -16 -97 -48 -101 -87 -3
-18 1 -33 7 -35 11 -4 294 -3 340 1 18 1 18 22 1 65 -7 18 -95 66 -121 66 -7
0 -13 11 -13 24 0 13 -6 28 -13 34 -9 8 -12 42 -11 119 1 59 2 112 3 117 2 13
108 -3 184 -29 190 -65 341 -218 404 -409 44 -136 31 -345 -28 -456 -21 -38
-23 -50 -11 -50 13 0 49 79 67 145 42 156 25 316 -48 465 -32 66 -58 102 -117
160 -135 134 -261 189 -445 196 -72 2 -127 -1 -160 -10z m153 -278 c-6 -18
-28 -21 -28 -4 0 9 7 16 16 16 9 0 14 -5 12 -12z m90 -74 c39 -19 52 -31 52
-47 0 -22 -3 -22 -152 -22 -84 0 -156 4 -160 9 -13 18 6 39 56 62 69 32 137
32 204 -2z"/>
<path d="M407 928 c-33 -44 -43 -105 -23 -151 14 -34 14 -36 -7 -39 -24 -3
-25 -12 -12 -90 l7 -48 -56 0 -56 0 0 -50 c0 -51 6 -57 57 -51 8 1 5 -20 -8
-69 -23 -80 -20 -101 10 -93 14 4 24 19 31 47 27 107 29 109 93 113 36 2 57
-1 57 -8 0 -6 9 -42 21 -79 15 -49 26 -69 40 -73 30 -8 33 14 10 93 -13 49
-16 70 -8 69 52 -6 58 -1 55 49 l-3 47 -58 3 c-57 3 -59 4 -53 28 4 13 9 44
13 69 5 42 4 45 -17 45 -17 0 -21 4 -15 18 4 9 9 40 12 67 3 39 -1 59 -19 89
-13 22 -28 41 -35 43 -6 2 -22 -11 -36 -29z m56 -33 c21 -43 21 -91 2 -125
-13 -23 -14 -20 -15 53 0 44 -4 77 -10 77 -11 0 -13 -10 -12 -94 0 -50 -2 -56
-14 -44 -26 26 -21 117 9 156 15 19 22 15 40 -23z m31 -203 c-15 -99 -11 -92
-58 -92 l-43 0 -7 46 c-10 73 -11 71 53 72 59 1 59 0 55 -26z m104 -144 l1
-28 -160 0 -159 0 0 28 0 28 159 0 158 0 1 -28z m-247 -79 c-5 -13 -10 -19
-10 -12 -1 15 10 45 15 40 3 -2 0 -15 -5 -28z m188 -19 c0 -10 -3 -8 -9 5 -12
27 -12 43 0 25 5 -8 9 -22 9 -30z m-204 -42 c-4 -18 -12 -37 -18 -43 -7 -7 -8
-4 -3 8 3 11 9 30 12 43 9 36 17 29 9 -8z m224 -18 c6 -19 7 -30 2 -25 -5 6
-13 24 -17 40 -9 39 0 30 15 -15z"/>
<path d="M315 550 c-7 -11 4 -12 140 -12 115 0 117 1 110 12 -4 6 -57 10 -125
10 -68 0 -121 -4 -125 -10z"/>
<path d="M922 903 c-55 -22 -72 -63 -72 -173 -1 -89 -2 -93 -15 -68 -18 33
-51 40 -155 36 -85 -3 -96 -23 -12 -21 51 1 52 0 52 -28 0 -16 -5 -29 -10 -29
-20 0 -60 -53 -60 -77 0 -14 9 -38 21 -54 19 -27 19 -34 9 -85 -12 -55 -7 -81
9 -55 5 7 12 35 15 62 l7 48 72 -2 72 -2 9 -58 c11 -76 30 -75 21 1 l-6 59 66
0 66 0 -6 -58 c-8 -71 9 -81 20 -13 10 69 12 71 61 72 24 1 53 6 63 12 24 13
28 7 37 -57 6 -51 19 -82 28 -72 3 3 0 39 -7 81 -11 67 -11 78 5 114 14 31 18
64 17 159 -1 139 -12 176 -61 201 -42 22 -198 27 -246 7z m233 -23 c41 -22 49
-49 51 -173 1 -119 -3 -167 -15 -167 -4 0 -8 12 -9 26 -4 54 -23 104 -45 119
-25 17 -207 22 -207 5 0 -10 29 -13 89 -10 33 2 33 1 28 -32 -4 -18 -11 -63
-18 -100 l-11 -68 -154 0 c-145 0 -154 1 -174 22 -25 28 -26 52 0 78 18 18 33
20 170 20 93 0 150 4 150 10 0 6 -30 10 -70 10 l-70 0 0 90 c0 128 22 171 95
182 42 7 170 -1 190 -12z m-354 -209 c3 -1 11 -12 17 -26 11 -25 11 -25 -33
-25 -41 0 -45 2 -45 24 0 25 14 35 40 30 8 -1 18 -3 21 -3z m328 -10 c10 -10
23 -46 30 -82 11 -60 10 -65 -10 -81 -13 -11 -38 -18 -66 -18 -42 0 -45 2 -40
23 3 12 11 53 17 91 6 38 13 73 16 78 9 14 33 9 53 -11z"/>
<path d="M279 138 c-5 -118 -2 -133 19 -136 18 -3 22 2 22 26 0 24 4 29 23 29
41 1 47 3 47 18 0 11 -11 15 -36 15 -28 0 -35 3 -32 18 2 12 13 17 38 17 24 0
35 5 35 15 0 11 -14 16 -57 18 -54 3 -58 2 -59 -20z"/>
<path d="M459 143 c-6 -118 -3 -138 18 -141 17 -3 22 3 25 25 l3 28 26 -28
c15 -15 36 -27 48 -27 21 0 21 1 5 26 -13 19 -14 28 -5 37 6 6 11 25 11 42 0
38 -29 55 -90 55 -31 0 -40 -4 -41 -17z m91 -44 c0 -14 -7 -19 -25 -19 -20 0
-25 5 -25 24 0 19 4 22 25 18 16 -3 25 -11 25 -23z"/>
<path d="M660 80 c0 -73 2 -80 20 -80 21 0 23 5 21 55 l-1 30 38 -42 c59 -67
72 -60 72 37 0 73 -2 80 -19 80 -16 0 -20 -8 -23 -46 l-3 -46 -32 46 c-21 29
-40 46 -53 46 -18 0 -20 -6 -20 -80z"/>
<path d="M870 141 c0 -13 8 -21 22 -23 20 -3 23 -9 23 -58 0 -49 2 -55 23 -58
21 -3 22 0 22 57 0 54 2 61 20 61 13 0 20 7 20 20 0 18 -7 20 -65 20 -58 0
-65 -2 -65 -19z"/>
<path d="M1067 153 c-2 -5 -3 -39 -3 -78 1 -63 3 -70 21 -70 11 0 20 7 20 15
0 23 32 24 40 1 4 -14 15 -21 31 -21 26 0 31 9 12 28 -9 9 -9 18 0 37 18 38
15 62 -10 79 -23 16 -104 22 -111 9z m91 -50 c-5 -26 -44 -29 -51 -4 -4 18 0
21 25 21 23 0 29 -4 26 -17z"/>
</g>
</svg>
