<svg viewBox="0 0 245 281" xmlns="http://www.w3.org/2000/svg" fill-rule="evenodd" clip-rule="evenodd" stroke-linejoin="round" stroke-miterlimit="2">
  <path d="M54.091909 251.0580915v5.6939255H40.625983v6.2757865h12.800942v5.6939255H40.625983v11.387851h-6.483594v-29.0514885h19.94952zM91.2897595 260.7003595c0 4.654888-1.828706 7.647316-5.5276795 9.0188455l7.3563855 10.390375h-7.979808l-6.4420325-9.2682145h-4.488642v9.2682145h-6.483594v-29.0514885h11.0137975c4.5302035 0 7.730439.748107 9.6838295 2.2858825 1.911829 1.5377755 2.8677435 3.989904 2.8677435 7.3563855zM78.945994 265.230563c2.2027595 0 3.740535-.3740535 4.5302035-1.080599.7896685-.7065455 1.2052835-1.8702675 1.2052835-3.4496045 0-1.5377755-.415615-2.6183745-1.246845-3.2002355-.83123-.581861-2.2858825-.8727915-4.3639575-.8727915H74.207983v8.6032305h4.738011zM126.4089625 251.0580915h6.483594V280.10958h-6.483594l-13.8399795-18.203937v18.203937h-6.483594v-29.0514885h6.067979l14.2555945 18.702675v-18.702675zM159.366593 256.668894v23.440686h-6.483594v-23.440686h-8.229177v-5.6108025h22.941948v5.6108025h-8.229177zM204.4617595 260.7003595c0 4.654888-1.828706 7.647316-5.5276795 9.0188455l7.3563855 10.390375h-7.979808l-6.4420325-9.2682145h-4.488642v9.2682145h-6.483594v-29.0514885h11.0137975c4.5302035 0 7.730439.748107 9.6838295 2.2858825 1.911829 1.5377755 2.8677435 3.989904 2.8677435 7.3563855zm-12.3437655 4.5302035c2.2027595 0 3.740535-.3740535 4.5302035-1.080599.7896685-.7065455 1.2052835-1.8702675 1.2052835-3.4496045 0-1.5377755-.415615-2.6183745-1.246845-3.2002355-.83123-.581861-2.2858825-.8727915-4.3639575-.8727915h-4.8626955v8.6032305h4.738011zM33.7441 183.6556h59.353v-11.257h-59.353v11.257zm61.254 3.802h-63.155c-1.049 0-1.901-.85-1.901-1.9v-15.06c0-1.05.852-1.9 1.901-1.9h63.155c1.05 0 1.901.85 1.901 1.9v15.06c0 1.05-.851 1.9-1.901 1.9" fill="#172433" fill-rule="nonzero"/>
  <path d="M42.8093 217.212h-5.992c-.594 0-1.154-.277-1.514-.751-.359-.473-.476-1.088-.317-1.66l8.29-29.754c.283-1.011 1.331-1.603 2.342-1.321 1.012.282 1.603 1.33 1.321 2.342l-7.619 27.342h2.045l7.903-28.363c.282-1.011 1.332-1.603 2.342-1.321 1.012.282 1.603 1.33 1.321 2.342l-8.29 29.754c-.23.822-.978 1.39-1.832 1.39M85.4773 213.41h2.044l-7.235-25.952h-2.04l7.231 25.952zm4.547 3.802h-5.991c-.853 0-1.602-.569-1.831-1.39l-8.291-29.754c-.159-.573-.041-1.187.317-1.661.36-.474.92-.751 1.515-.751h5.987c.853 0 1.602.569 1.831 1.391l8.295 29.754c.159.572.042 1.187-.317 1.66-.36.473-.92.751-1.515.751M66.4163 187.458h-5.991c-1.05 0-1.901-.851-1.901-1.9 0-1.05.851-1.902 1.901-1.902h5.991c1.05 0 1.901.852 1.901 1.902 0 1.049-.851 1.9-1.901 1.9M85.0393 179.685h-43.237c-1.05 0-1.901-.852-1.901-1.901 0-1.05.851-1.902 1.901-1.902h43.237c1.05 0 1.901.852 1.901 1.902 0 1.049-.851 1.901-1.901 1.901M55.0703 168.597h15.819l3.812-22.523h-23.443l3.812 22.523zm17.425 3.802h-19.031c-.928 0-1.72-.669-1.875-1.584l-4.455-26.326c-.093-.551.061-1.117.422-1.544.362-.428.893-.674 1.452-.674h27.942c.56 0 1.091.246 1.453.674.361.427.515.993.422 1.544l-4.455 26.326c-.155.915-.947 1.584-1.875 1.584" fill="#172433" fill-rule="nonzero"/>
  <path d="M62.9793 105.434c-2.573 2.852-8.087 9.901-8.087 17.939 0 11.066 4.262 18.778 8.087 18.778s8.086-7.712 8.086-18.778c0-8.037-5.513-15.086-8.086-17.939m0 40.519c-6.667 0-11.889-9.918-11.889-22.58 0-12.111 10.163-21.672 10.596-22.073.73-.676 1.856-.676 2.585 0 .433.401 10.597 9.962 10.597 22.073 0 12.662-5.222 22.58-11.889 22.58" fill="#172433" fill-rule="nonzero"/>
  <path d="M62.9793 145.109c-1.05 0-1.901-.851-1.901-1.901v-28.979c0-1.05.851-1.901 1.901-1.901s1.901.851 1.901 1.901v28.979c0 1.05-.851 1.901-1.901 1.901" fill="#172433" fill-rule="nonzero"/>
  <path d="M16.6583 181.972c-.672 0-1.323-.356-1.669-.987-9.805-17.887-14.989-38.184-14.989-58.699C.0003 54.857 54.8583 0 122.2873 0s122.287 54.857 122.287 122.286c0 20.515-5.184 40.813-14.99 58.699-.505.92-1.66 1.256-2.581.753-.92-.505-1.258-1.661-.753-2.581 9.499-17.328 14.522-36.993 14.522-56.871 0-65.332-53.153-118.484-118.485-118.484-65.333 0-118.484 53.152-118.484 118.484 0 19.877 5.021 39.543 14.521 56.871.504.92.167 2.076-.754 2.581-.29.159-.603.234-.912.234" fill="#172433" fill-rule="nonzero"/>
  <path d="M122.2873 50.946c-1.05 0-1.901-.852-1.901-1.901V2.219c0-1.049.851-1.9 1.901-1.9s1.901.851 1.901 1.9v46.826c0 1.049-.851 1.901-1.901 1.901" fill="#172433" fill-rule="nonzero"/>
  <path d="M119.6523 58.843h4.996v-5.4c0-1.378-1.12-2.498-2.497-2.498-1.378 0-2.499 1.12-2.499 2.498v5.4zm6.897 3.802h-8.798c-1.05 0-1.901-.851-1.901-1.901v-7.301c0-3.474 2.826-6.3 6.301-6.3 3.473 0 6.299 2.826 6.299 6.3v7.301c0 1.05-.851 1.901-1.901 1.901" fill="#172433" fill-rule="nonzero"/>
  <path d="M92.4813 81.166h59.609V78.01c0-.03 0-.059.001-.09.237-4.978-6.48-8.832-12.158-11.188-6.03-2.503-12.222-3.857-13.313-4.086-.024.001-.048.002-.071.002h-8.607c-1.109.232-7.287 1.585-13.305 4.084-5.676 2.356-12.392 6.21-12.157 11.188l.001 3.246zm61.51 3.802h-63.41c-1.05 0-1.901-.851-1.901-1.901V78.01c-.271-5.686 4.623-10.699 14.548-14.81 6.956-2.881 13.862-4.261 14.152-4.318.122-.024.245-.036.369-.036h7.8c.093-.057.192-.107.294-.149.656-.26 1.391-.138 1.923.306 1.837.396 7.689 1.759 13.575 4.197 9.901 4.099 14.796 9.096 14.551 14.853v5.014c0 1.05-.851 1.901-1.901 1.901M209.0053 214.996l-8.899-53.326c-1.13-6.773-6.933-11.689-13.8-11.689h-29.533c-1.05 0-1.902.852-1.902 1.902 0 1.05.852 1.9 1.902 1.9h21.104l-10.229 61.213c-.173 1.035.526 2.016 1.561 2.188.107.018.212.026.316.026.912 0 1.718-.657 1.873-1.587l10.335-61.84h4.573c5.001 0 9.227 3.58 10.05 8.513l8.899 53.325c.154.931.96 1.589 1.873 1.589.103 0 .209-.009.315-.026 1.036-.173 1.735-1.153 1.562-2.188M108.6233 217.212c-.104 0-.209-.008-.315-.025-1.036-.173-1.735-1.153-1.562-2.189l3.933-23.573c.173-1.036 1.153-1.734 2.188-1.563 1.035.173 1.735 1.153 1.562 2.189l-3.933 23.573c-.156.93-.961 1.588-1.873 1.588" fill="#172433" fill-rule="nonzero"/>
  <g>
    <path d="M116.8073 168.186c-.104 0-.209-.009-.315-.026-1.036-.174-1.735-1.154-1.562-2.189l2.405-14.404c.173-1.036 1.151-1.736 2.189-1.563 1.035.173 1.735 1.153 1.561 2.189l-2.405 14.404c-.155.93-.961 1.589-1.873 1.589" fill="#172433" fill-rule="nonzero"/>
  </g>
  <g>
    <path d="M146.2293 217.207c-.913 0-1.719-.658-1.873-1.589l-3.748-22.464c-.172-1.036.526-2.015 1.562-2.188 1.044-.172 2.017.527 2.189 1.562l3.747 22.465c.173 1.036-.526 2.015-1.563 2.188-.105.017-.211.026-.314.026" fill="#172433" fill-rule="nonzero"/>
  </g>
  <g>
    <path d="M138.0393 168.141c-.912 0-1.718-.659-1.873-1.589l-.71-4.258c-.822-4.933-5.049-8.513-10.05-8.513h-29.532c-1.049 0-1.901-.852-1.901-1.902 0-1.05.852-1.9 1.901-1.9h29.532c6.867 0 12.671 4.916 13.8 11.689l.71 4.258c.173 1.036-.526 2.016-1.562 2.188-.106.017-.211.027-.315.027" fill="#172433" fill-rule="nonzero"/>
  </g>
  <g>
    <path d="M106.5173 180.639c-.638-6.778 4.699-12.499 11.349-12.499h23.548c.153.039.309.066.473.066.164 0 .321-.027.473-.066h25.719c1.05 0 1.901-.852 1.901-1.901 0-1.05-.851-1.902-1.901-1.902h-24.291v-32.345c0-10.479 8.526-19.005 19.006-19.005h25.08c10.48 0 19.005 8.526 19.005 19.005v37.406c0 7.796-4.162 14.637-10.381 18.42-3.257 1.98-7.079 3.123-11.162 3.123h-67.136c-5.933 0-11.127-4.395-11.683-10.302m99.428 3.483c.035-.047.069-.096.104-.145 2.913-4.127 4.632-9.154 4.632-14.579v-37.406c0-12.576-10.23-22.807-22.807-22.807h-25.08c-12.576 0-22.807 10.231-22.807 22.807v32.345h-21.681c-8.176 0-15.222 6.271-15.624 14.438-.43 8.728 6.547 15.968 15.184 15.968h67.47c.514 0 1.025-.021 1.532-.051.153-.009.304-.023.457-.034.365-.03.729-.065 1.09-.109.157-.019.313-.038.469-.06.414-.058.825-.126 1.233-.204.081-.016.164-.028.244-.044.49-.099.974-.214 1.454-.341.111-.03.221-.064.332-.095.373-.103.742-.216 1.107-.336.134-.044.268-.089.401-.136.375-.131.746-.27 1.114-.419.088-.035.178-.068.266-.104.464-.193.922-.399 1.373-.618.032-.016.062-.033.094-.049.41-.202.814-.417 1.211-.641.095-.052.19-.108.283-.163.357-.206.708-.421 1.052-.643.073-.047.146-.092.217-.139.841-.556 1.646-1.159 2.412-1.808.049-.041.097-.084.145-.125.339-.291.67-.59.992-.898.05-.048.099-.095.149-.143.736-.713 1.429-1.467 2.074-2.264.005-.007.01-.014.016-.021.309-.383.606-.775.892-1.176" fill="#172433" fill-rule="nonzero"/>
  </g>
</svg>
