<svg width="89" height="15" viewBox="0 0 89 15" fill="none" xmlns="http://www.w3.org/2000/svg">
<path d="M10.3138 0V2.93991H3.352V6.18025H9.97004V9.12018H3.352V15H0V0H10.3138ZM29.545 4.97853C29.545 7.38196 28.5996 8.92704 26.6872 9.63519L30.4904 15H26.3649L23.0344 10.2146H20.7138V15H17.3618V0H23.0559C25.398 0 27.0525 0.386268 28.0624 1.18026C29.0508 1.97425 29.545 3.24033 29.545 4.97853ZM23.1633 7.31759C24.3021 7.31759 25.0972 7.12446 25.5054 6.75965C25.9137 6.39485 26.1285 5.79398 26.1285 4.97853C26.1285 4.18454 25.9137 3.62661 25.4839 3.32618C25.0542 3.02575 24.3021 2.87553 23.2278 2.87553H20.7138V7.31759H23.1633ZM47.7015 0H51.0535V15H47.7015L40.5463 5.60085V15H37.1943V0H40.3314L47.7015 9.65665V0ZM64.7405 2.89699V15H61.3885V2.89699H57.1341V0H68.995V2.89699H64.7405ZM88.0546 4.97853C88.0546 7.38196 87.1091 8.92704 85.1968 9.63519L89 15H84.8745L81.5439 10.2146H79.2234V15H75.8713V0H81.5654C83.9075 0 85.5621 0.386268 86.572 1.18026C87.5604 1.97425 88.0546 3.24033 88.0546 4.97853ZM81.6729 7.31759C82.8117 7.31759 83.6067 7.12446 84.015 6.75965C84.4232 6.39485 84.6381 5.79398 84.6381 4.97853C84.6381 4.18454 84.4232 3.62661 83.9935 3.32618C83.5637 3.02575 82.8117 2.87553 81.7373 2.87553H79.2234V7.31759H81.6729Z" fill="#080708"/>
</svg>
