<svg width="84" height="32" viewBox="0 0 84 32" fill="none" xmlns="http://www.w3.org/2000/svg">
<rect width="84" height="32" fill="white"/>
<path fill-rule="evenodd" clip-rule="evenodd" d="M84 12.0379C83.0547 8.43152 80.7599 7 77.6275 7C75.0895 7 71.9043 8.43152 71.9043 11.8788C71.9043 14.1059 73.4429 15.8562 75.9536 16.3072L78.3296 16.7311C79.9498 17.0226 80.4088 17.6327 80.4088 18.4547C80.4088 19.3827 79.4099 19.913 77.9249 19.913C75.9812 19.913 74.766 19.2236 74.5769 17.2877L71.1482 17.8182C71.6878 21.5567 75.0356 23.0951 78.0595 23.0951C80.9218 23.0951 83.9727 21.4507 83.9727 18.1365C83.9727 15.8824 82.5954 14.2389 80.0305 13.7609L77.4119 13.2841C75.9536 13.019 75.4679 12.303 75.4679 11.6137C75.4679 10.7385 76.4126 10.1821 77.7087 10.1821C79.3559 10.1821 80.5168 10.7385 80.5707 12.5681L84 12.0379ZM7.77656 17.7117L11.3399 7.39752H15.5247L9.31464 22.6967H6.21005L0 7.3978H4.18481L7.77656 17.7117ZM29.6735 11.7728C29.6735 12.9923 28.7015 13.8408 27.5673 13.8408C26.4334 13.8408 25.4617 12.9923 25.4617 11.7728C25.4617 10.5529 26.4334 9.70478 27.5673 9.70478C28.7015 9.70478 29.6738 10.5529 29.6738 11.7728H29.6735ZM30.3214 17.182C28.9171 18.9846 27.4322 20.2308 24.8132 20.2309C22.1409 20.2309 20.0614 18.64 18.4415 16.3069C17.7934 15.3521 16.7944 15.1402 16.0652 15.644C15.3903 16.1213 15.2287 17.1289 15.8494 18.0041C18.0902 21.3715 21.1951 23.3332 24.8129 23.3332C28.1342 23.3332 30.7264 21.7426 32.7511 19.0909C33.5069 18.1101 33.4799 17.1025 32.7511 16.5456C32.0759 16.0148 31.0769 16.2012 30.3214 17.182ZM39.6375 15.0075C39.6375 18.1365 41.4735 19.7805 43.5257 19.7805C45.4694 19.7805 47.4677 18.2425 47.4677 15.0075C47.4677 11.8253 45.4694 10.2878 43.5524 10.2878C41.4735 10.2878 39.6375 11.7461 39.6375 15.0075ZM39.6375 9.51923V7.42394H35.8307V28H39.6375V20.6816C40.9066 22.3788 42.5535 23.0951 44.4162 23.0951C47.8997 23.0951 51.3014 20.3903 51.3014 14.8222C51.3014 9.49223 47.7645 7.00029 44.7403 7.00029C42.3373 7.00029 40.6907 8.08714 39.6375 9.51923ZM57.9174 15.0075C57.9174 18.1365 59.7532 19.7805 61.8054 19.7805C63.7491 19.7805 65.747 18.2425 65.747 15.0075C65.747 11.8253 63.7491 10.2878 61.8321 10.2878C59.7532 10.2878 57.9171 11.7461 57.9171 15.0075H57.9174ZM57.9174 9.51923V7.42394H57.9171H54.1104V28H57.9171V20.6816C59.1862 22.3788 60.8331 23.0951 62.6959 23.0951C66.1791 23.0951 69.5811 20.3903 69.5811 14.8222C69.5811 9.49223 66.0442 7.00029 63.02 7.00029C60.6169 7.00029 58.9704 8.08714 57.9174 9.51923Z" fill="#FF5B24"/>
</svg>
