<svg version="1" xmlns="http://www.w3.org/2000/svg" width="1877.333" height="1877.333" viewBox="0 0 1408.000000 1408.000000"><path d="M721.3 19.2c-.1 1.3-.7 2.4-1.2 2.6-.5.2-.7 1-.4 1.8.3.7-.2 5.3-1 10.1-.9 4.9-1.8 10.4-2.1 12.3-.3 1.9-.8 4.6-1.1 6-.2 1.4-.7 4.1-.9 6-.5 3.5-1 6.6-2.1 13-.3 1.9-.8 5.1-1.1 7-.8 5.3-1.2 7.5-1.4 7.5-.1 0-.3 1.3-.5 2.9-.2 1.6-.9 6.1-1.5 10-.7 3.9-1.3 8-1.5 9.1-.1 1.1-.3 2-.5 2-.1 0-.3.9-.4 2-.2 1.1-.7 4.5-1.1 7.5-.4 3-.9 6.2-1 7-.1.8-.5 3.1-.9 5-1.4 7.7-1.7 9.6-2.2 13-.2 1.9-.7 4.7-1 6.2-.3 1.5-.7 3.9-.9 5.5-.4 2.9-.9 6-2.1 12.3-.3 1.9-.7 4.6-.9 6-.2 1.4-.6 4.1-.9 6-1.3 6.9-2.5 14.6-3.1 19-.4 2.5-1 6.3-1.5 8.5s-1.1 6.2-1.4 9c-.4 2.7-.8 5.7-1.1 6.5-.2.8-.6 3.1-.9 5-.2 1.9-.7 5.1-1.1 7-.3 1.9-.8 4.4-1 5.5-.2 1.1-.4 2-.5 2-.1 0-.3 1.7-.5 3.8-.2 2.1-.5 4.8-.8 6-.3 1.2-.9 4.2-1.2 6.7-.7 5.1-1.3 8.5-1.5 8.5-.1 0-.3 1.8-.6 4-.2 2.2-.9 6.2-1.4 9-.6 2.7-1.2 6.6-1.5 8.6-.4 3.3-3 18.8-4.1 24.9-.5 3-1.4 8.4-1.9 12.5-.2 1.6-.4 3-.5 3-.2 0-.7 2.6-1.4 7.5-.4 2.5-.9 5.8-1.3 7.5-.3 1.6-.7 4.1-.8 5.5-.4 3.1-1.4 9.6-2.2 13-.2 1.4-.5 3.5-.6 4.7-.1 1.3-.3 2.3-.6 2.3-.4 0-.7 1.5-.7 3.2-.1 3.5-.8 8.1-2.4 16.3-.5 2.7-1.2 6.8-1.5 8.9-.3 2.1-.8 4.8-1 6-.3 1.2-.7 3.7-.9 5.6-.4 3.5-1.1 8-2.2 13.5-.9 4.6-1.2 6.6-1.9 12-.3 2.7-.9 5.9-1.2 7-.4 1.1-.7 2.7-.8 3.5-.3 2.1-1.7 12.2-2 14-.1.8-.6 3.5-1 6s-.9 5.4-1.1 6.5c-.3 1.1-.7 3.6-1 5.5-.6 4-1.2 7.4-1.9 11-.4 2.5-2.3 14-3.1 19.2-.2 1.6-.6 4.3-1 6-.3 1.8-.7 4.4-.9 5.8-.4 2.7-1.4 9-2.1 12.3-.2 1.2-.6 3.9-1 6.2-.5 3.5-4.6 28.7-5.8 35.5-.3 1.4-.7 4.1-1 6-.3 1.9-.7 4.4-1 5.5-.2 1.1-.7 4.2-1 6.9-.4 2.7-.9 5.2-1 5.5-.2.3-.7 3.3-1.1 6.6-.3 3.2-.8 6.2-1 6.5-.2.3-.6 2.7-.9 5.5-.6 4.8-.9 7.2-2.1 13.2-.3 1.6-.8 4.4-1.1 6.3-.2 1.9-.8 5.7-1.4 8.5-.5 2.7-1.2 6.8-1.5 9-.3 2.2-.7 4.7-1 5.5-.2.8-.6 3.5-.9 6-.3 2.5-.8 5.6-1.1 7-.2 1.3-.7 4-1 6-.3 2-.7 4.5-.9 5.7-.3 1.1-.7 3.8-1.1 5.9-.3 2.2-.8 5.2-1.1 6.9-.7 3.7-1.4 8.1-1.9 12-.2 1.6-1.1 6.8-2 11.5-.8 4.7-1.7 10.3-2 12.5-.2 2.2-.7 5.1-1 6.5-.3 1.4-.8 3.8-1 5.5-.2 1.6-1.6 10-3 18.5s-2.8 16.8-3.1 18.5c-.2 1.6-.6 4.1-.9 5.5-1.1 6.1-1.7 9.7-1.9 13-.2 2-.6 4.5-.9 5.5-.7 2.3-1.7 8.4-2.2 13.3-.2 1.8-.6 4.1-.9 5-.3.9-.8 3.9-1.1 6.7-.4 2.7-.9 5.9-1.2 7-.4 1.1-.7 2.7-.8 3.5-.3 2.6-2.7 17.4-3.1 19.5-.5 2.2-1.3 7.2-1.9 12-.2 1.6-.4 3-.5 3-.2 0-.5 1.9-1.4 8.5-.3 2.5-.9 5.6-1.2 7-.3 1.4-.7 3.8-.9 5.5-.2 1.6-.6 3.9-.8 5-.3 1.1-.8 4-1.1 6.5-.3 2.5-.8 5.6-1.1 7-.3 1.4-.7 4.1-1 6-.2 1.9-.9 5.8-1.4 8.7-.6 2.9-1.3 7.4-1.7 10-.7 5.5-1.1 7.8-1.8 10.1-.3.9-.7 3.9-1.1 6.5-.8 6.7-2.4 14.7-3 15.8-.4.5-.1.9.6.9.8 0 .9.4 0 1.3-.6.8-1.2 3.3-1.5 5.8-.2 2.4-.5 4.4-.6 4.4-.1 0-.3.9-.4 2-.8 5.4-2.4 15.7-3.2 20-.3 1.6-.8 4.5-1 6.3-.1 1.8-.5 4.1-.8 5-.3.9-.8 3.5-1.1 5.7-.3 2.3-.8 5.2-1 6.5-.3 1.4-.8 4.5-1.1 7-.3 2.5-.7 5.2-.9 6-.7 2.7-1.7 8.4-1.9 11-.2 1.4-.6 3.6-1 5s-.8 4.3-1 6.5c-.2 2.2-.6 5.1-.9 6.5-.4 1.4-.9 4.1-1.2 6-.2 1.9-.7 4.6-1 6-.3 1.4-.7 4.1-1 6-.8 6.1-1.7 12.4-2.1 14.5-.6 2.9-1.3 7.1-1.8 10.2-.3 1.6-1.2 6.8-2 11.8-.9 4.9-1.8 10.8-2.2 13-.3 2.2-.9 5.6-1.3 7.5-.4 1.9-.7 4.7-.7 6.2.1 1.6-.2 2.8-.6 2.8-.4 0-.7 1-.6 2.3 0 1.2-.5 5.1-1.2 8.7-1.1 6.1-1.6 8.9-2.5 15-.2 1.4-.6 3.8-.9 5.5-.2 1.6-.7 4.8-1.1 7-.3 2.2-.8 4.7-1 5.5-.2.8-.7 3.7-1 6.5-.4 2.7-.8 5.7-1 6.5-.3.8-.7 3.2-1.1 5.4-.3 2.1-.8 4.8-1 6-.3 1.1-.7 4.3-1 7.1l-.5 5 4.8 2.7c7.5 4.2 10.8 6.2 11.3 6.9.3.4 2.6 2 5.2 3.5 11.3 6.8 28.3 17.9 28.6 18.6.2.4.8.8 1.3.8.6 0 4.3 2.2 8.4 5 4.1 2.7 7.9 5 8.5 5 .5 0 1 .4 1 1 0 .5.6 1 1.3 1 .7 0 2.3.9 3.5 2 1.2 1.1 2.4 2 2.7 2 .3 0 3.8 2.1 7.8 4.7 4 2.5 10.8 6.9 15.2 9.8 4.4 2.8 9.4 6 11 7 4.4 2.8 6.7 4.3 9.3 5.6 1.2.7 2.2 1.6 2.2 2.1s.5.6 1 .3c.6-.3 1.3.1 1.6.9.3.9 1.1 1.6 1.8 1.6.6 0 3.7 1.8 6.9 4 3.1 2.2 5.9 4 6.2 4 .2 0 5.5 3.3 11.7 7.3 22.9 14.9 28.9 18.7 29.4 18.7.3 0 1 .5 1.7 1 1.3 1.1 16.7 11.1 23.2 15 2.2 1.3 4.2 2.8 4.3 3.2.2.4.8.8 1.3.8.7 0 17.7 10.6 20.4 12.8.6.4 1.7 1.1 2.5 1.5.8.4 4.9 3 9 5.7 4.1 2.8 8.3 5.3 9.3 5.6.9.4 1.7 1 1.7 1.5s.7.9 1.5.9 1.5.4 1.5 1c0 .5.6 1 1.4 1 1.2 0 3.7-7 3.7-10.2 0-.4.6-2.6 1.4-4.8.8-2.2 1.4-4.3 1.4-4.5 0-.3.5-2.2 1-4.2.6-2 .8-4 .5-4.5-.3-.4-.1-.8.4-.8s.9-.6.9-1.3c0-.6 2.7-11.1 5.8-23.2 3.2-12.1 6.2-24.3 6.8-27 .6-2.8 1.5-5.3 2.1-5.7.6-.4.8-.8.4-.8-.3 0 .7-5 2.3-11.2 1.6-6.2 3.1-12.1 3.3-13.2.2-1.2 1.6-6.3 3-11.4 1.5-5.1 2.4-9.7 2.1-10.2-.4-.6-.1-1 .5-1s1-.6.9-1.3c-.1-.6 0-1.9.4-2.7.5-1.4 1.8-6.3 2.2-8.5.1-.6.3-1.2.4-1.5.1-.3.4-1.4.7-2.5.2-1.1 2.9-11.5 5.9-23 3.1-11.6 5.8-21.9 6-23 .8-4.1 2.6-11.1 3.2-12.5.3-.8.7-2 .8-2.5.1-.6.3-1.2.4-1.5.2-.3.4-1.4.5-2.5.2-1.1 1.5-6.5 3-12s2.9-11 3.2-12.2c.2-1.2.9-3.4 1.4-4.9.6-1.5.8-2.9.5-3.2-.2-.3 0-1.1.7-1.9.6-.7.8-1.6.5-2-.3-.3 0-1.8.8-3.3.8-1.5 1.2-3 .9-3.3-.3-.3-.1-1.4.5-2.5.6-1 1.3-3.4 1.6-5.3.3-1.9 2.4-10 4.5-18 2.2-8 4.2-15.6 4.4-17 .3-1.3.5-2.4.6-2.4.1 0 .3-.9.6-2 .2-1.1 3.1-12.4 6.4-25 3.4-12.7 6.3-23.9 6.5-25 1-4.5 1.5-6.3 3.5-14 1.2-4.4 2.3-8.7 2.5-9.5.2-.8.4-1.5.5-1.5.1 0 .3-.9.5-2s2-8.3 4-16c2-7.7 3.9-14.8 4.1-15.7.5-2.2.3-1.5 5.4-21.3 2.3-8.8 4.4-16.8 4.5-17.8.2-.9.6-2.1.9-2.5.3-.5.8-2.2 1.1-3.8.3-1.6 3-12.4 6-23.9 3.1-11.6 5.8-22.1 6.1-23.5.3-1.4 1-4.3 1.6-6.5.6-2.2 1.3-4.6 1.4-5.4.2-.8.6-2.6 1-4s.8-2.9.9-3.4c.2-.4.3-.8.5-1 .2-.3 1-3.7 1.3-6.2.2-1.2.7-2.6 1.1-3.3.4-.7.4-1.2 0-1.2-.3 0-.1-.7.6-1.5s1-1.5.7-1.5c-.3 0 .3-3 1.4-6.8 1.1-3.7 2.1-7.6 2.3-8.7.2-1.1 1.8-7.4 3.5-14 1.8-6.6 3.4-12.9 3.6-14 .2-1.1.4-2 .5-2 .1 0 .3-.7.5-1.5s1.1-4.2 2-7.5c.8-3.3 1.8-6.9 2-8 1.1-4.7 1.5-6.2 2.5-10 .6-2.2 1.3-4.9 1.5-6 .3-1.1 1.8-7.2 3.6-13.5 1.7-6.3 3.2-12.2 3.4-13l2-8c.9-3.6 1.9-7.2 2.1-8 .2-.8.8-3.3 1.4-5.5.6-2.2 1.3-5.1 1.6-6.5.3-1.4.8-3.4 1.1-4.5 1-2.9 6.3-23.6 6.7-26 .1-.6.4-1.5.8-2 .3-.6 1.1-3.7 1.8-7s1.5-6.4 1.8-7c.3-.5.7-1.9.8-3 .2-1.7 1.4-6.4 2.9-11.5.6-2 1.6-5.9 1.9-8 .3-1.4 1.9-7.5 3.6-13.5 1.7-6.1 3.2-12.1 3.4-13.5.3-1.4.9-3.9 1.6-5.5.6-1.7 1.1-3.1 1-3.3-.4-.8 1.4-7.3 2.1-7.8.5-.3.7-.9.4-1.3-.2-.5.5-4.1 1.6-8.2 1.2-4.1 2.2-8.1 2.4-8.9.2-.8 1-4.2 1.9-7.5.9-3.3 1.9-7.1 2.2-8.5.3-1.4 1.1-4.5 1.8-7s1.4-4.8 1.5-5.3c0-.4.1-.8.2-1 0-.1.2-.9.4-1.7.1-.8 1.1-4.4 2-8 .9-3.6 1.9-7.3 2-8.3.2-1 1.3-5.1 2.4-9.1 1.1-4 2.2-8.3 2.5-9.7.3-1.3.9-3.9 1.5-5.8.6-1.8 1-3.6.9-4 0-.3.1-.9.2-1.4.1-.4.3-1 .5-1.5.1-.4.4-1.4.8-2.2.6-1.7 5.1-19.9 5.2-21.5.1-.6-.3-1.6-.8-2.3-.5-.6-.7-1.2-.3-1.2.3 0-.4-1.2-1.7-2.6-1.2-1.4-2.2-2.9-2.2-3.2-.1-.8-3.9-7.1-5.2-8.7-.5-.6-2.3-3.5-4.1-6.5-1.8-3-3.8-6.4-4.5-7.4-5.3-8.4-14.5-23.6-15.6-25.9-.8-1.5-1.8-2.7-2.3-2.7-.4 0-.8-.4-.8-1 0-.5-2-4.1-4.5-8-2.5-3.8-4.2-7-3.7-7 .4 0-.1-.5-1.1-1.1-.9-.6-1.5-1.4-1.2-1.8.2-.5-.4-1.6-1.5-2.6s-2-2.2-2-2.6c0-.5-1.6-3.3-3.5-6.4-2-3-3.5-5.8-3.4-6.1 0-.4-.3-1-.8-1.3-.5-.3-2.7-3.5-4.8-7.1-2.1-3.6-4.3-6.7-4.7-6.8-.4-.2-.8-.8-.8-1.2 0-.5-2.7-5.2-6-10.5s-6-10-6-10.6c0-.5-.4-.9-1-.9-.5 0-1-.5-1-1 0-.6-1.7-3.7-3.8-6.8-2.1-3.1-5.3-8.3-7.2-11.5-5.1-8.6-4.8-8.1-13.5-22.2-4.3-7.2-8.3-13.2-8.7-13.3-.4-.2-.8-.8-.8-1.3 0-.6-4.5-8.2-10-17-5.5-8.9-10-16.5-10-17s-.4-.9-.9-.9-1.5-1.5-2.2-3.3c-.7-1.7-2.1-4-3-5.1-1-1-2.4-3-3.1-4.5-.7-1.4-4.4-7.7-8.3-13.9-7.3-11.8-7.5-12-16.9-27.8-3.3-5.4-6.4-10.1-6.8-10.2-.4-.2-.8-1-.8-1.7s-.3-1.5-.7-1.7c-.5-.2-1.7-1.9-2.7-3.8-1.1-1.9-3.5-5.9-5.3-8.7-1.8-2.9-3.2-5.4-3.1-5.6.2-.1-1.2-2.2-3-4.5-1.9-2.3-3.1-4.2-2.7-4.2.3 0-.5-1.5-1.8-3.3-1.3-1.7-4.4-6.5-6.8-10.5-2.4-4.1-5.1-8.6-6-10-.9-1.5-8-13-15.8-25.6-7.7-12.5-14.1-23.2-14.1-23.7s-.4-.9-1-.9c-.5 0-1-.4-1-.9 0-.9-24.1-40.4-29.1-47.8-1.6-2.3-2.9-4.4-2.9-4.7 0-.3-3.4-5.9-7.5-12.4-4.1-6.6-7.8-12.7-8.1-13.6-.9-2.3-1.9-2-2.1.6zM523.3 142.1c-.1 1.1-.7 5.3-1.3 9.2-.6 4-1.2 8.5-1.4 10.2-.3 1.6-.9 5.9-1.5 9.5-.6 3.6-1.3 8.7-1.6 11.5-.7 5.3-1 7.7-1.9 14-.4 2.2-.9 5.8-1.1 8-.3 2.2-.8 5.1-1 6.5-.2 1.4-.9 6.1-1.5 10.5s-1.2 9.1-1.5 10.5c-.2 1.4-.9 6.1-1.5 10.5s-1.3 9.1-1.5 10.5c-.2 1.4-.9 6.1-1.5 10.5-1.6 11.6-2 13.7-2.6 14.7-.3.4.1.8.8.8.8 0 .9.3.3.8-.5.4-1.1 1.1-1.1 1.7-.1.5-.5 3.2-.9 6-.9 7.1-1.6 11.6-2.1 14.5-.4 2.1-1.2 9.5-1.6 14.7-.1.7-.4 1.3-.7 1.3-.3 0-.7 1.7-.7 3.8-.1 2-1.4 12-2.8 22.2-1.5 10.2-3 20.1-3.2 22-.3 1.9-.7 4.6-.9 6-.2 1.4-.7 4.7-1.1 7.5-.3 2.7-.8 5.9-1.1 7-.2 1.1-.6 4-.8 6.5-.3 2.5-.7 6-1 7.7-.3 1.8-.7 5-1 7-.3 2.1-.8 4.9-1 6.3-.3 1.4-.7 4.7-1 7.5-.3 2.7-.8 6.1-1 7.5-.3 1.4-.7 4.1-1 6-.3 1.9-1.4 9.6-2.4 17-1.1 7.4-2.3 15.7-2.7 18.5-.3 2.7-.8 5.9-1 7-.5 2.3-1.5 10.7-1.9 15-.2 1.6-.4 3-.5 3-.1 0-.3 1.3-.5 3-.5 3.3-.9 6.8-1.9 13.5-1.2 7.6-1.4 9.3-2.1 15-.4 3-.9 6.4-1.2 7.5-.2 1.1-.6 3.3-.8 5-1.2 9.2-3.4 25.9-4 29.5-.4 2.7-2 13.1-2.9 19.3-.9 6-1.8 12.9-2.1 16.2-.2 1.6-.4 3-.5 3-.2 0-.5 1.8-1.4 9-.3 2.7-.9 6.7-1.2 8.7-.2 2.1-.7 5-.9 6.5-.2 1.5-1.3 9.1-2.4 16.8-1.1 7.7-2.3 16.2-2.6 18.9-.3 2.6-.9 6.7-1.3 9-.5 2.2-.8 5.2-.7 6.6 0 1.4-.3 2.7-.7 3-.4.3-.9 3.6-1 7.3-.2 3.7-.6 6.7-.9 6.7-.4 0-.7 1.8-.7 4s-.3 4.3-.5 4.7c-.3.5-.8 3.7-1.2 7.3-.4 3.6-.9 7.4-1.2 8.5-.2 1.1-.6 3.8-.9 6-.2 2.2-.7 5.6-1 7.5-.3 1.9-.8 4.8-.9 6.5-.2 1.6-.6 3.9-.8 5-.3 1.1-.8 4.9-1.2 8.5-.4 3.6-.9 6.8-1 7.1-.2.3-.7 3.2-1 6.5-.4 3.2-.8 6.6-1 7.4-.1.8-.6 4.2-1 7.5-.5 3.3-.9 6.2-1 6.5-.1.5-.4 2.4-2.1 14-.3 1.9-.7 5.3-1 7.5-.2 2.1-.7 5.1-.9 6.5-.3 1.4-.8 5-1.1 8-.3 3-.8 5.8-1.1 6.3-.2.4-.6 3.3-.9 6.5-.2 3.1-.8 7.9-1.4 10.7-.5 2.7-1.1 7-1.4 9.5-.2 2.5-.9 7.4-1.5 11-1.5 9.9-2.3 15.2-2.6 18-.1 1.4-.5 4.5-.9 7-1.4 8.4-2 12.4-3.1 21.5-.2 1.6-.6 4.1-.9 5.5-.2 1.4-.7 5-1.1 8-.4 3-.9 6.6-1.1 8-.3 1.4-.7 4.1-.9 6-.6 5.4-1.5 12-2.5 17.5-.5 2.7-1.2 7.5-1.5 10.5-.7 5.7-1.2 9.7-2 14-.8 4.5-1.7 11.4-2 15.5-.2 2.2-.5 4-.6 4-.1 0-.3.9-.4 2-.3 2-1 6.8-2.1 14.7-.4 2.4-.7 5.2-.9 6.3-.2 2.5-1.5 11.2-2.1 14.5-.3 1.4-.7 4.1-.9 6-.8 6.8-1.4 11.5-1.9 13.5-.2 1.1-.7 4.7-1.1 8-.3 3.3-1 7.6-1.4 9.5-.4 1.9-.7 4.7-.7 6.2.1 1.6-.1 2.8-.4 2.8-.3 0-.7 1-.7 2.2-.2 3.1-1.9 15.9-2.9 21.3-.2 1.1-.7 4.4-1 7.4-.3 3-.8 6.4-1 7.5-.3 1.2-.7 4.1-.9 6.5-.3 2.4-.7 5.2-1 6.1-.4 1.3 2.2 3.5 10.7 9 6.2 4.1 19.3 12.7 29.1 19.2s18.2 11.8 18.6 11.8c.5 0 1.1.3 1.3.7.4 1 9.4 7.3 10.3 7.3.8 0 6.9 4.3 7.3 5.2.2.5.8.8 1.4.8.6 0 2.7 1.4 4.8 3 2.1 1.7 4 3 4.4 3 .3 0 6.6 4.1 14 9 7.5 5 13.8 9 14 9 .4 0 .9-2.8 2.2-10.5.1-1.1.5-3.6.8-5.5.3-1.9.8-4.6 1-6 .3-1.4.7-4.2 1-6.3 1.3-8.4 2.2-13.7 2.6-14.7.1-.3.2-.8.1-1.2 0-.4.6-4.7 1.5-9.5.8-4.8 1.7-9.9 1.9-11.3.4-2.6.9-5.7 2.6-15.5.6-3.3 1.2-6.9 1.4-8 .1-1.1.8-4.9 1.4-8.3.7-3.5 1.4-7.8 1.6-9.5.2-1.8.7-5 1.1-7.2.3-2.2.8-5.1.9-6.5.2-1.4.4-2.6.5-2.8.1-.1.4-1.1.5-2.2.1-1.1.3-2.1.4-2.3.2-.1.4-1.8.6-3.7.2-1.9.6-4.6 1-6 .3-1.4.8-4.4 1.1-6.6.2-2.3.7-5.3.9-6.5.6-2.9 1.1-5.9 4.1-24.4 1-5.5 1.8-10.9 2-12 .1-1.1.3-2 .4-2 .2 0 .8-4.2 1.5-9.5.2-1.9.4-3.5.5-3.5.2 0 .6-2.6 1.4-7.5.2-1.9.7-4.6 1-6 .3-1.3.7-3.9.8-5.8.1-1.8.6-3.6 1-3.8.5-.3.6-.9.3-1.4-.3-.5-.1-3 .5-5.6.6-2.6 1.3-6.6 1.6-8.9.5-4.2.8-6.2 1.9-11.5.3-1.4.7-4.1.9-6 .3-1.9.8-4.9 1.1-6.5.3-1.7.9-5.7 1.5-9s1.2-7.4 1.5-9c.3-1.7.7-3.9.9-5 .2-1.1.7-4 1.1-6.5.4-2.5.9-5.9 1.1-7.5.1-1.7.3-3 .4-3 .1 0 .3-1.1.5-2.5.2-2.3.8-5.4 2-12 .8-4.3 1.7-9.4 1.9-11.5.4-2.4 1.7-10.2 2.2-13 .3-1.1.6-3.6.9-5.5.3-1.9.7-4.6 1-6 .3-1.4.7-4.1 1-6 .3-1.9.7-4.6 1-6 .2-1.3.8-4.2 1.1-6.5.4-2.2.8-5.1 1.1-6.5.7-4.2 1.5-10.4 1.7-12.8 0-1.2.4-2.2.7-2.2.4 0 .6-.8.6-1.8-.1-.9.4-4.6 1.1-8.2.6-3.6 1.4-8.3 1.7-10.5.8-5.4 1.2-7.3 2.1-12 .4-2.2.8-4.9.9-6 .1-1.1.4-3.6.8-5.5s.9-4.6 1.1-6c.2-1.4.9-5.2 1.4-8.5 1.1-6 1.7-9.8 2.8-16.8.7-4.8 1.2-7.2 1.4-7.2.1 0 .3-2 .6-4.4.2-2.5.7-5.6 1-7 .6-2.8.8-4.3 1.8-10.6.4-2.3.8-5 1-6 .2-1.1.9-5.4 1.6-9.5.6-4.1 1.3-8.6 1.6-10 .2-1.4.7-4.1 1-6 .9-5.6 1.2-7.5 1.4-7.5.1 0 .3-1.6.6-3.5.5-4.4.9-6.9 2.2-14.5.6-3.3 1.4-7.8 1.7-10 .7-4.3 1.3-7 1.5-7 0 0 .3-1.8.5-4s.6-5.1.9-6.5c.3-1.4.8-4.5 1.1-6.9.3-2.4.7-4.6.9-5 .2-.3.7-3.5 1.1-7.1.4-3.6 1-6.9 1.3-7.4.3-.5.6-2.1.7-3.5.4-3.7 1.6-11.5 2-12.1.1-.3.6-3.2 1-6.5.3-3.2.8-6.2 1.1-6.6.2-.4.6-3.1 1-6 .7-6.5 1.2-9.4 1.4-9.4.2 0 .8-3.5 1.6-9 .3-2.8 1-5.8 1.5-6.8.7-1.1.6-1.7-.1-1.7-.6 0-.8-.5-.5-1 .4-.6.8-2 1.1-3.3.2-1.2.6-3.3.9-4.7.3-1.4.8-4.5 1.1-7 .3-2.5.7-5.2.9-6 .3-.8.7-3.3 1-5.5.7-4.6 1.2-7.7 2.1-12 .3-1.7.7-4.6.9-6.5.2-1.9.4-3.5.5-3.5.2 0 .9-3.7 1.6-9 .3-2.8.7-5.2.9-5.5.2-.3.6-2.6.9-5 .3-2.5.7-5.4 1-6.5.2-1.1.7-4 1.1-6.5.4-2.5.9-5.2 1-6.1.4-2 1.3-7.7 2.1-12.7.3-2 1.4-8.7 2.5-14.9 1-6.1 2.1-12.6 2.3-14.5.3-1.8.6-3.3.7-3.3.2 0 .7-3.1 1.2-8.6.3-2.6.7-5.1 1-5.5.2-.5.8-3.3 1.1-6.3.4-2.9.8-5.6 1-6 .2-.3.7-3 1-6 .4-2.9.8-5.6 1-6 .2-.3.6-2.9 1-5.6.3-2.8.8-6.1 1.1-7.5.3-1.4.7-3.9 1-5.5 1.4-9.4 1.7-10.8 3.1-18.8.3-1.7.7-4.1.8-5.2.2-1.1.6-3.5 1-5.3.6-2.5.2-4.1-1.5-7-2.1-3.4-14.4-22.3-21.5-33.1-1.6-2.4-3.3-5.1-3.9-6-.5-.8-4-6.1-7.7-11.8-3.8-5.6-6.8-10.5-6.8-10.9 0-.3-1.3-2.3-2.8-4.3-1.5-2-3.4-4.8-4.1-6.4-.8-1.5-1.8-2.7-2.3-2.7-.4 0-.8-.7-.8-1.5s-.4-1.5-1-1.5c-.5 0-1-.4-1-1 0-.5-3.5-6.3-7.9-12.9-4.3-6.5-8-12.2-8.2-12.7-.4-1-11.7-18.2-19-29.1-2.7-4-4.9-7.6-4.9-8.1s-.9-1.7-2-2.7c-1.1-1-2-2.4-2-3.2 0-.7-.4-1.3-1-1.3-.5 0-1-.6-1-1.3 0-.7-.9-2.3-2-3.5-1.1-1.2-2-2.4-2-2.7 0-.3-2.2-3.9-5-8-2.7-4.1-5-7.9-5-8.5 0-.5-.4-1-1-1-.5 0-1-.7-1-1.5s-.4-1.5-.8-1.5c-.5 0-1.4-1.1-2-2.5-1.4-3-2.7-3.2-2.9-.4zM240.5 547.2c.6 4.1 1.3 9.9 2 15.8.3 2.5.8 5.5 1 6.8.3 1.2.8 4.4 1.1 7 .3 2.6.7 5.8.9 7.2.2 1.4.6 4.7 1 7.5.7 6.1 1.3 10.2 1.9 13.5.3 1.4.7 5 1 8 .4 3 .9 6.8 1.2 8.5.3 1.6.7 4.7.9 6.7.3 2.1.7 5.5 1 7.5.2 2.1.6 5.1.9 6.8.3 1.6.8 5.2 1.2 8 .3 2.7.7 5.9.9 7 .1 1.1.6 4.2 1 7 .3 2.7.8 6.1 1.1 7.5.2 1.4.6 5 1 8 .3 3 .8 6.6 1 8 .3 1.4.7 4.5 1 7 .4 4.3 1 7.9 1.4 9 .1.3.2.8.1 1.2 0 .5.4 4.1.9 8 .6 4 1.3 9.3 1.6 11.8.2 2.5.6 5.2.9 6 .2.8.7 3.7 1 6.5.4 2.7.8 6.1 1 7.5.1 1.4.6 5.2 1 8.4.4 3.3.9 6.7 1 7.5.2.9.6 4.1 1 7.1s.9 6.6 1.1 8c1 5.8 1.5 9.7 1.7 13.2.1 2.1.4 3.8.7 3.8.3 0 .5 1 .6 2.2.1 3.2 1.3 13.5 2 17.2.3 1.7.7 4.7.9 6.6.2 1.9.6 4.8.9 6.5.2 1.6.7 5 1 7.5.3 2.5.8 5.4 1 6.5.2 1.1.7 4.7 1.1 8 .7 6.5 1.4 11.6 2 15.5.2 1.4.6 4.7 1 7.5.3 2.7.9 6.1 1.1 7.5.3 1.4.7 4.1.9 6 .9 7.6 1.6 12.6 2.1 15.5.3 1.6.7 4.8.9 7 .2 2.2.6 5.6.9 7.5.6 3.9 1.4 9.4 2.1 15.5.3 2.2.7 5.3 1 7 .2 1.6.7 5.2 1 8 .3 2.7.8 6.1 1.1 7.5.6 3 .9 5.4 1.9 14 .3 3.5.8 6.7 1 7 .1.3.6 3.2.9 6.5.4 3.3.9 6.9 1.1 8 .2 1.1.7 4.2 1 7 .3 2.7.8 6.3 1 8 .3 1.6.7 4.6 1 6.5.2 1.9.7 5.1 1 7 .3 1.9.7 5.5 1 7.9.3 2.4.7 5.8 1 7.5.3 1.7.7 5.1 1 7.6.2 2.5.6 5.6.9 7 .4 2.3 1.1 7.3 2.2 16 .2 1.9.6 4.8.9 6.5.3 1.6.7 4.8 1 7 .3 2.2.8 5.3 1 7 1.1 6.6 1.9 14.2 1.9 17.2.1 1.8.4 3.3.9 3.3.4 0 .7.6.7 1.2.1 1.2 17 12.6 23.2 15.7 1.5.7 2.8 1.7 2.8 2.2 0 .5.5.9 1 .9.6 0 3.4 1.6 6.2 3.5 2.8 2 5.5 3.2 5.9 2.8.4-.4 1-3.3 1.4-6.3 1.1-8.9 1.3-10.3 1.9-13.5.3-1.7.8-5.3 1.1-8 .3-2.8.8-6.1 1-7.5 1.1-6.4 1.8-11.8 1.9-14.7.1-1.8.3-3.3.6-3.3s.6-.8.6-1.8c.1-2.3 1.3-12.1 1.9-14.6.3-1.2.8-4.4 1.1-7.1.3-2.8.7-6.6 1-8.5.3-1.9.7-4.6.9-6 .1-1.4 1.5-10.8 3-21s2.8-19.4 3-20.5c.1-1.1.6-4.4 1-7.4.3-3 .8-6.1 1-7 .3-1.8 1.8-12.5 2.1-15.4.1-.9.2-1.8.3-2 .2-.1.5-2 .7-4.2.3-2.2.7-5.6 1-7.5.2-1.9.6-4.9.8-6.5.2-1.7.5-3.2.6-3.5.1-.3.2-1.7.2-3.3.1-1.5.4-2.7.7-2.7.4 0 .6-1.2.5-2.7 0-1.5.3-4.7.8-7.2s1.1-6.6 1.3-9.1c.3-2.5.7-5.6 1-7 .3-1.4.8-4.5 1-7 .3-2.5.8-5.6 1-7 .3-1.4.7-4.8 1.1-7.5.3-2.8.8-5.9 1-7 .2-1.1.7-4 1-6.5 1.1-9.4 1.3-10.5 1.4-10.5.1 0 .3-1.4.5-3 .2-3 .9-8 2-14.5.9-5.7 1.5-10.3 2-14 .2-1.9.7-5.3 1-7.5.4-2.2.8-5.1 1-6.5 1-8.3 1.5-11.8 1.9-14 .3-1.4.7-4.5 1-7 .3-2.5.8-5.4 1-6.5.2-1.1.7-4.5 1.1-7.5.3-3 .8-6.6 1-8 .3-1.4.7-4.5 1.1-7 .3-2.5.7-5.4.9-6.5.2-1.1.6-4.4 1-7.4s.9-6.3 1.1-7.5c.4-2.1 1.6-12.1 1.7-14.4 0-.6.3-1.2.6-1.2s.7-1.7.8-3.8c.1-3.7.7-8.8 1.8-15.2.3-1.9.7-4.9.9-6.5.2-1.7.7-5 1-7.5 2.1-13.9 2.6-17 3.2-21.5.3-2.8.8-5.7.9-6.5.2-.9.6-4.3 1-7.5.4-3.3.9-6.9 1.1-8 1.7-8.4 1.5-9.2-1.9-10.9-1.7-.9-4.5-2.5-6.2-3.5-1.6-.9-6.1-3.5-10-5.6-3.8-2.1-7.9-4.3-9-4.9-1.1-.6-2.2-1.3-2.5-1.6-.5-.5-7-4.1-14.5-7.9-1.6-.9-3.2-1.8-3.5-2.1-.3-.3-3.4-2-7-3.9s-6.7-3.7-7-4c-.3-.3-2.5-1.7-5-3-10.8-5.6-12-6.4-12.6-7.2-.3-.5-1.4-.9-2.5-.9-1 0-1.9-.4-1.9-.9s-1.5-1.4-3.2-2.2c-1.8-.7-3.5-1.6-3.8-2-.3-.4-3.2-2.1-6.5-3.8-3.3-1.8-6.7-3.6-7.5-4.1-5-3.1-23.3-13-24.1-13-.5 0-.9-.5-.9-1 0-.6-.4-1-1-1-.5 0-3.1-1.3-5.7-2.8-5.9-3.5-20-11.2-23-12.6-1.3-.6-2.3-1.4-2.3-1.9 0-.4-.6-.7-1.4-.7-.7 0-3.1-1.2-5.2-2.6-2.1-1.5-4.4-2.7-5-2.8-.7-.1-1.8-.7-2.5-1.3-.8-.6-2.9-1.8-4.6-2.7L240 544l.5 3.2zM1170 590.1c-1.8 1.1-11.1 5.2-12.5 5.5-.5.1-4.4 1.8-8.5 3.7-4.1 1.9-13.6 6-21 9.2-12.3 5.2-16.3 6.9-25.5 11-1.6.7-5.5 2.3-8.5 3.6-3 1.3-5.7 2.5-6 2.8-.3.4-1.2.7-2 .9-.8.1-4.4 1.5-8 3.1-3.6 1.6-8.3 3.7-10.5 4.7-2.2 1-4.3 1.7-4.7 1.6-.5-.1-.8.3-.8.8 0 .6-.6 1-1.4 1-1.2 0-4.8 1.4-16.1 6.5-11.8 5.3-14.6 6.5-15 6.5-.2 0-3.3 1.3-6.8 3-3.6 1.6-6.9 3-7.4 3-.4 0-3 1.2-5.8 2.5-2.7 1.4-5.6 2.5-6.2 2.5-.7 0-1.3.5-1.3 1.2 0 .6-.3.8-.6.5-1-.9-4.6 1.2-3.9 2.4.4.5.1.9-.6.9s-1 .3-.6.6c.3.3.1 1.8-.5 3.3-.5 1.4-1.1 3.5-1.3 4.6-.2 1.1-.9 3.8-1.5 6s-1.3 5.1-1.6 6.5c-.3 1.4-1.2 4.8-2 7.6s-1.6 6-1.8 7.1c-.2 1.1-1.1 4.3-2 7.2-.9 3-1.3 5.7-1.1 6.2.3.4.1 1-.4 1.3-.5.3-1.4 3.5-2.1 7.1-.7 3.6-1.6 6.8-2.1 7-.4.3-.6 1.2-.2 2 .3.8.1 1.5-.4 1.5s-1 1-1 2.2c-.1 2-.8 4.9-3.7 15.8-2.8 10.4-3.5 13.4-3.1 13.8.3.3.1 1-.4 1.6-.7 1-5.4 17.7-6.4 23.1-.2 1.1-.7 2.7-1 3.5-.7 1.6-7.6 28.2-8.2 31.5-.2 1.1-.8 3.5-1.4 5.3-.5 1.8-1 3.5-1 3.7-.1.3-.1.6-.2.7-.3 1-1.1 4.6-1.3 5.8-.1.8-.8 3.1-1.4 5-.6 1.9-1.3 4.6-1.6 6-.6 2.9-.9 4.1-3.6 14-1.1 4.1-2.2 8.7-2.5 10.2-.3 1.5-.9 3.8-1.5 5.2-.5 1.5-.7 2.6-.4 2.6.4 0 .2.6-.4 1.3-.6.7-1.3 2.9-1.5 4.8-.2 1.9-.6 3.9-.9 4.4-.3.6-.9 2.3-1.3 4-.4 1.6-.9 3.7-1.1 4.5-.2.8-2.4 9.4-4.9 19-2.5 9.6-4.7 18.2-5 19-.2.8-.4 1.5-.5 1.5-.1 0-.3 1.1-.4 2.5-.2 1.4-.8 4.2-1.5 6.2s-1.4 4.9-1.7 6.4c-.3 1.5-.9 3.5-1.4 4.4-.5 1-.7 2-.4 2.2.2.3 0 1.7-.5 3.1-.9 2.4-8.8 32.2-9.6 36.2-.2 1.1-.4 2-.5 2-.1 0-.3.7-.5 1.5-.1.8-1 4.2-1.9 7.5-2.1 7.4-2.6 9.4-3.2 12.2-.4 1.9-8 31.6-10 38.8-.4 1.6-.8 3.4-.9 4-.1.5-.4 2-.9 3.2-.4 1.2-.9 3-1.1 4-.3 1-.9 3.8-1.6 6.3-.6 2.5-1.2 4.9-1.3 5.5-.1.5-.5 1.6-.9 2.2-.5.7-.6 1.3-.3 1.3.2 0 0 1.5-.5 3.2-.6 1.8-1.2 4-1.4 4.8-.2.8-1.3 5.1-2.5 9.5-1.1 4.4-2.2 8.9-2.5 10-.2 1.1-.4 2-.5 2-.1 0-.3.7-.5 1.5s-.9 3.3-1.5 5.5-1.2 4.7-1.2 5.5c0 .8-.5 2.1-1.1 2.7-.5.7-.7 1.3-.4 1.3.3 0-.1 2.4-.9 5.2-2.1 7.5-6.4 23.9-6.9 26.3-.2 1.1-.8 3.5-1.4 5.4-.6 1.8-1 3.6-.9 4 .1.3-.2 1.3-.5 2.1-.8 1.9-2.9 10-3.2 12-.1.8-1.2 5.1-2.4 9.5s-2.4 8.7-2.6 9.6c-1.1 5.3-6.7 25.8-7.5 27.7-.7 1.7-.7 2.1.1 1.6.7-.4.6.3-.2 1.7-.7 1.3-1.4 3-1.5 3.8-.2.7-.8 3.6-1.5 6.5-.7 2.8-1.4 5.4-1.5 5.8-.1.5-.2.9-.4 1-.2.3-.6 1.8-1.4 5.6-.3 1.3-.8 3.2-1.1 4.2-.3 1-.8 2.7-1 3.7-.3 1-1.2 4.5-2 7.8-.9 3.3-1.8 7.3-2.1 9-.4 1.6-1 3.8-1.5 4.7-.5 1-.7 1.8-.3 1.8.3 0 .1.7-.6 1.5s-1 1.5-.7 1.5c.3 0 .1 1.6-.5 3.6-.5 2-1.1 4.4-1.4 5.3-.2.9-1.7 7-3.5 13.6-1.7 6.6-3.3 12.7-3.5 13.5-2.2 9.3-9.5 36.9-10 38-.4.8-.8 2.9-1.1 4.7-.2 1.7-1 5-1.8 7.2-1.5 4.5-.8 5.2 2 2.1 1-1.1 2-1.8 2.3-1.5.3.2 1.4-.6 2.6-1.8 1.2-1.3 5.7-5.2 10.1-8.8 4.4-3.5 8.5-6.9 9.1-7.4.7-.6 2.6-2.1 4.4-3.5 1.8-1.4 3.7-3 4.4-3.5.6-.6 4.7-4 9.1-7.5 9.6-7.9 12.4-10.2 13.9-11.5.6-.6 3.4-2.8 6.1-5 2.8-2.2 5.5-4.4 6.1-5 .7-.5 2.9-2.4 4.9-4 2.1-1.7 4.5-3.7 5.5-4.5 1-.8 3.5-2.9 5.6-4.5 2-1.7 4.2-3.5 4.8-4 .6-.6 6.1-5.1 12.1-10 6.1-4.9 11.5-9.4 12.1-10 .6-.5 5.5-4.6 11-9 5.4-4.4 10.5-8.7 11.4-9.5.9-.8 3.8-3.3 6.5-5.5 2.8-2.2 5.5-4.4 6.2-5 .7-.5 1.8-1.5 2.5-2 2-1.7 19.8-16.4 24.7-20.4 2.3-2 5.1-4.3 6.1-5.1 12.4-10.1 13.7-11.4 14.3-14.8.3-1.5.7-3.6 1-4.7 2.7-10.3 3.9-15.3 4-16.8.1-.9.6-1.7 1.1-1.7.5 0 .7-.3.4-.6-.4-.3-.2-2 .3-3.7.9-3.1 11.7-44.4 12.4-47.6.2-.9 1.8-6.8 3.5-13.1 3.6-13.4 12-45.7 12.6-48.3 1-4.4 1.3-5.4 2.3-8 .6-1.5.9-2.7.6-2.7-.2 0 .5-3 1.6-6.8 1.1-3.7 2.2-7.8 2.5-9.1.3-1.4 1.4-5.7 2.5-9.7 1.1-4 2.2-8.1 2.4-9.1.5-2.1 4.1-15.8 9-34.3 2-7.4 3.8-14.6 4.1-16 .3-1.4.8-3.4 1.1-4.5.4-1.1.8-2.3.9-2.8.1-.4.3-.8.4-1 .1-.1.4-1.3.5-2.7.2-1.4 1.6-6.8 3-12 1.5-5.2 2.8-10 2.9-10.5.1-.6.5-1.6.9-2.3.5-.6.6-1.2.3-1.2s.1-1.7.7-3.8c.7-2 1.3-4.4 1.2-5.2 0-.8.2-1.7.6-2 .3-.3 1.1-2.8 1.7-5.5.6-2.8 2.9-12 5.2-20.5 2.2-8.5 4.2-16.2 4.4-17 .2-.8 1.2-4.4 2.1-8 .9-3.6 1.8-7 1.9-7.5.1-.6.5-1.6.9-2.3.5-.6.6-1.2.3-1.2-.2 0 0-1.5.5-3.3 1.5-4.7 2-7 2.1-8.5.1-.6.5-1.2 1-1.2s.7-.4.4-.8c-.3-.5.2-3.3 1-6.3.9-3 1.7-6.3 1.9-7.4.2-1.1 2-8.1 4-15.5 2.1-7.4 3.9-14.2 4-15 .2-.8 1.6-6 3-11.5s2.7-10.7 2.9-11.6c.3-.8 1.1-3.9 2-6.7.8-2.9 1.3-5.2 1-5.2-.3 0 0-.8.5-1.8.6-1.1 1.2-3 1.5-4.4.2-1.4 1.6-7 3.1-12.4 2.7-9.9 3-10.9 4.5-17.4.5-1.9 2-7.7 3.4-12.8 1.4-5.1 2.8-10.7 3.1-12.4.3-1.7.8-3.5 1.1-4 .3-.5.8-2.1 1-3.6.3-1.5 1.2-4.7 2-7.2s1.6-5.6 1.8-7c.3-1.4.5-2.5.6-2.5.1 0 .3-.7.5-1.5.1-.8 1.1-4.4 2-8 .9-3.6 1.9-7.6 2.2-8.9.2-1.4.6-2.8.9-3.3.3-.4.7-1.6.9-2.6.1-.9.8-3.7 1.5-6.2s1.4-5.3 1.6-6.2c.5-2.3.9-3.8 3-11.3.9-3.3 1.8-6.7 1.9-7.5.2-.8.4-1.5.5-1.5.1 0 .4-1.1.6-2.5.3-1.4 1-4.3 1.6-6.5.6-2.2 1.2-4.3 1.4-4.8.1-.4.2-.8.4-1 .1-.1.3-1.1.5-2.2.3-2.2 6.7-26.9 9-34.9 1.8-6.1 1.1-7.8-2.5-5.5z"/></svg>